<svg xmlns="http://www.w3.org/2000/svg" xmlns:xlink="http://www.w3.org/1999/xlink" width="1000" zoomAndPan="magnify" viewBox="0 0 750 254.999984" height="340" preserveAspectRatio="xMidYMid meet" version="1.0"><defs><g/><clipPath id="65fb887e94"><path d="M 64.625 32 L 270.125 32 L 270.125 155 L 64.625 155 Z M 64.625 32 " clip-rule="nonzero"/></clipPath><clipPath id="e85d6f9a79"><path d="M 64.625 152 L 134 152 L 134 250 L 64.625 250 Z M 64.625 152 " clip-rule="nonzero"/></clipPath><clipPath id="00ad34f15e"><path d="M 200 152 L 270.125 152 L 270.125 251 L 200 251 Z M 200 152 " clip-rule="nonzero"/></clipPath><clipPath id="b5524db397"><path d="M 64.625 5.308594 L 270.125 5.308594 L 270.125 34 L 64.625 34 Z M 64.625 5.308594 " clip-rule="nonzero"/></clipPath><clipPath id="2617d0ea92"><path d="M 3.484375 11.421875 L 116 11.421875 L 116 241.671875 L 3.484375 241.671875 Z M 3.484375 11.421875 " clip-rule="nonzero"/></clipPath><clipPath id="4b9addacd3"><path d="M 219 11.421875 L 331.984375 11.421875 L 331.984375 241.671875 L 219 241.671875 Z M 219 11.421875 " clip-rule="nonzero"/></clipPath><clipPath id="137faf3431"><path d="M 98.144531 25.0625 L 236.894531 25.0625 L 236.894531 193.0625 L 98.144531 193.0625 Z M 98.144531 25.0625 " clip-rule="nonzero"/></clipPath></defs><g clip-path="url(#65fb887e94)"><path fill="#0a2351" d="M 64.65625 32.828125 L 270.09375 32.828125 L 270.09375 154.132812 L 64.65625 154.132812 Z M 64.65625 32.828125 " fill-opacity="1" fill-rule="nonzero"/></g><g clip-path="url(#e85d6f9a79)"><path fill="#0a2351" d="M 133.148438 249.964844 L 133.148438 152.9375 L 64.65625 152.9375 C 64.65625 197.75 93.253906 235.851562 133.148438 249.964844 Z M 133.148438 249.964844 " fill-opacity="1" fill-rule="nonzero"/></g><path fill="#0a2351" d="M 201.601562 152.9375 L 132.410156 152.9375 L 132.410156 249.675781 C 143.132812 253.464844 155.378906 255.808594 167.375 255.808594 C 179.375 255.808594 190.917969 253.75 201.601562 249.964844 Z M 201.601562 152.9375 " fill-opacity="1" fill-rule="nonzero"/><g clip-path="url(#00ad34f15e)"><path fill="#0a2351" d="M 270.09375 152.9375 L 200.863281 152.9375 L 200.863281 250.210938 C 240.757812 236.097656 270.09375 197.75 270.09375 152.9375 Z M 270.09375 152.9375 " fill-opacity="1" fill-rule="nonzero"/></g><g clip-path="url(#b5524db397)"><path fill="#0a2351" d="M 64.65625 4.601562 L 270.09375 4.601562 L 270.09375 33.855469 L 64.65625 33.855469 Z M 64.65625 4.601562 " fill-opacity="1" fill-rule="nonzero"/></g><g clip-path="url(#2617d0ea92)"><path fill="#a6a6a6" d="M 115.300781 240.8125 C 109.722656 239.4375 104.40625 237.53125 99.355469 235.238281 C 99.289062 235.105469 99.222656 234.972656 99.09375 234.84375 L 99.027344 234.777344 C 98.765625 225.722656 91.742188 216.273438 85.375 210.367188 C 84.523438 209.582031 82.6875 210.039062 82.816406 211.417969 C 83.734375 218.765625 86.6875 225.917969 91.675781 231.367188 C 83.144531 226.574219 75.46875 220.539062 68.445312 213.519531 C 68.578125 213.320312 68.640625 213.058594 68.640625 212.796875 C 68.707031 206.695312 67.855469 200.789062 65.753906 195.015625 C 64.246094 190.882812 62.277344 185.433594 58.207031 183.269531 C 57.289062 182.8125 56.171875 183.402344 56.171875 184.449219 C 56.042969 191.601562 57.550781 198.753906 60.832031 205.054688 C 59.652344 203.675781 58.535156 202.234375 57.421875 200.789062 C 50.332031 191.472656 43.96875 181.300781 38.785156 170.671875 C 38.847656 170.539062 38.914062 170.34375 38.847656 170.148438 C 38.785156 169.949219 38.785156 169.753906 38.71875 169.554688 C 38.914062 169.492188 39.175781 169.359375 39.308594 169.097656 C 45.871094 159.386719 44.820312 144.953125 41.867188 134.191406 C 41.539062 132.945312 39.898438 132.878906 39.242188 133.863281 C 33.207031 142.65625 33.140625 152.757812 35.109375 162.601562 C 31.628906 154.398438 28.941406 145.871094 27.234375 137.144531 C 26.511719 133.46875 25.988281 129.792969 25.722656 126.183594 C 25.921875 126.183594 26.183594 126.121094 26.378906 125.988281 C 36.027344 120.148438 41.410156 107.15625 42.917969 96.460938 C 43.113281 95.085938 41.605469 93.902344 40.425781 95.019531 C 33.730469 101.449219 28.480469 109.125 25.394531 117.785156 C 25.59375 104.074219 28.808594 90.886719 34.191406 78.351562 C 34.386719 78.550781 34.714844 78.679688 35.042969 78.679688 C 46.328125 78.15625 57.027344 68.246094 62.734375 59.191406 C 63.390625 58.144531 62.277344 56.632812 61.09375 57.027344 C 52.890625 59.785156 45.34375 63.71875 38.652344 69.101562 C 44.820312 57.289062 52.695312 46.203125 61.488281 36.03125 L 61.554688 36.03125 C 67.132812 33.277344 73.628906 30.980469 78.15625 26.582031 C 82.03125 22.777344 84.128906 17.59375 86.164062 12.671875 C 86.820312 11.097656 84.851562 10.246094 83.671875 10.964844 C 83.539062 10.902344 83.472656 10.902344 83.277344 10.902344 C 78.222656 11.492188 73.761719 13.460938 70.085938 17.003906 C 66.082031 20.941406 64.179688 26.253906 61.226562 30.914062 C 54.46875 38.195312 48.296875 46.265625 42.917969 54.863281 C 44.492188 42.722656 46.527344 29.730469 43.375 17.789062 C 42.984375 16.347656 41.210938 16.347656 40.488281 17.398438 C 31.695312 29.730469 30.710938 47.316406 39.964844 59.71875 C 34.125 69.824219 29.53125 80.648438 26.578125 91.671875 C 26.316406 86.949219 25.921875 82.289062 25.394531 77.632812 C 25.066406 74.546875 25.722656 68.378906 23.035156 66.214844 C 22.507812 65.753906 21.785156 65.625 21.195312 65.953125 C 11.023438 72.121094 15.421875 95.609375 24.214844 101.121094 C 24.28125 101.1875 24.347656 101.1875 24.476562 101.1875 C 22.96875 109.714844 22.441406 118.3125 23.164062 126.972656 L 23.164062 127.039062 C 23.164062 127.167969 23.164062 127.300781 23.230469 127.433594 C 23.492188 130.515625 23.886719 133.535156 24.476562 136.617188 C 24.871094 138.785156 25.394531 140.882812 25.921875 142.984375 C 23.558594 138.980469 20.605469 134.976562 17.847656 131.5 C 14.632812 127.433594 10.828125 124.21875 5.707031 122.839844 C 4.527344 122.511719 3.609375 123.5625 3.804688 124.742188 C 6.300781 136.550781 15.222656 146.855469 27.035156 150.070312 C 27.363281 150.132812 27.628906 150.070312 27.824219 149.9375 C 31.433594 161.683594 36.683594 173.101562 42.984375 183.730469 C 40.425781 181.628906 37.734375 179.726562 34.847656 178.152344 C 30.972656 175.988281 25.527344 172.640625 21 174.085938 C 20.210938 174.347656 19.621094 175.199219 19.882812 175.988281 C 23.753906 187.929688 35.960938 195.605469 48.296875 192.257812 L 48.363281 192.257812 C 51.054688 196.328125 53.941406 200.265625 56.894531 204.003906 C 61.554688 209.976562 66.804688 215.75 72.578125 220.933594 C 65.359375 217.257812 56.304688 216.40625 48.757812 217.191406 C 47.511719 217.324219 46.722656 218.765625 47.707031 219.75 C 55.910156 227.886719 68.378906 231.167969 79.339844 226.902344 C 79.46875 226.839844 79.535156 226.773438 79.601562 226.707031 C 90.035156 234.582031 101.914062 240.355469 115.039062 242.191406 C 115.828125 242.453125 116.285156 241.078125 115.300781 240.8125 Z M 71.726562 19.890625 C 71.53125 20.285156 71.398438 20.613281 71.203125 21.003906 C 70.742188 21.398438 70.28125 21.792969 69.824219 22.253906 C 70.414062 21.398438 71.070312 20.613281 71.726562 19.890625 Z M 71.726562 19.890625 " fill-opacity="1" fill-rule="nonzero"/></g><g clip-path="url(#4b9addacd3)"><path fill="#a6a6a6" d="M 220.628906 242.324219 C 233.753906 240.484375 245.632812 234.710938 256.066406 226.839844 C 256.132812 226.902344 256.265625 226.96875 256.328125 227.035156 C 267.289062 231.300781 279.757812 228.019531 287.960938 219.882812 C 288.945312 218.898438 288.15625 217.457031 286.910156 217.324219 C 279.429688 216.601562 270.308594 217.457031 263.089844 221.0625 C 268.863281 215.878906 274.113281 210.171875 278.773438 204.136719 C 281.726562 200.328125 284.546875 196.394531 287.304688 192.390625 L 287.371094 192.390625 C 299.707031 195.671875 311.914062 188.058594 315.785156 176.117188 C 316.046875 175.265625 315.457031 174.476562 314.671875 174.214844 C 310.140625 172.707031 304.695312 176.050781 300.824219 178.285156 C 297.9375 179.921875 295.246094 181.761719 292.6875 183.859375 C 298.984375 173.164062 304.234375 161.8125 307.84375 150.070312 C 308.042969 150.199219 308.304688 150.265625 308.632812 150.199219 C 320.445312 146.984375 329.371094 136.683594 331.863281 124.875 C 332.125 123.757812 331.140625 122.707031 329.960938 122.96875 C 324.84375 124.28125 321.101562 127.496094 317.820312 131.632812 C 315.0625 135.109375 312.109375 139.113281 309.75 143.113281 C 310.273438 141.015625 310.734375 138.847656 311.191406 136.75 C 311.78125 133.664062 312.175781 130.648438 312.4375 127.5625 C 312.503906 127.433594 312.503906 127.300781 312.503906 127.167969 L 312.503906 127.105469 C 313.226562 118.507812 312.703125 109.847656 311.191406 101.316406 C 311.257812 101.316406 311.324219 101.253906 311.453125 101.253906 C 320.25 95.742188 324.644531 72.25 314.472656 66.082031 C 313.882812 65.6875 313.160156 65.886719 312.636719 66.34375 C 309.945312 68.574219 310.601562 74.679688 310.273438 77.761719 C 309.75 82.421875 309.355469 87.144531 309.09375 91.804688 C 306.140625 80.714844 301.480469 69.953125 295.703125 59.847656 C 304.957031 47.449219 303.972656 29.863281 295.179688 17.460938 C 294.457031 16.414062 292.621094 16.414062 292.292969 17.855469 C 289.140625 29.796875 291.175781 42.789062 292.75 54.929688 C 287.371094 46.332031 281.203125 38.261719 274.375 30.914062 C 271.488281 26.253906 269.585938 20.941406 265.515625 17.003906 C 261.84375 13.460938 257.378906 11.492188 252.328125 10.902344 C 252.195312 10.902344 252.0625 10.902344 251.933594 10.964844 C 250.75 10.246094 248.847656 11.097656 249.4375 12.671875 C 251.472656 17.59375 253.574219 22.777344 257.445312 26.582031 C 261.972656 30.980469 268.46875 33.277344 274.046875 36.03125 L 274.113281 36.03125 C 282.90625 46.203125 290.78125 57.289062 296.953125 69.101562 C 290.257812 63.71875 282.710938 59.785156 274.507812 57.027344 C 273.261719 56.632812 272.210938 58.144531 272.867188 59.191406 C 278.511719 68.183594 289.273438 78.15625 300.5625 78.679688 C 300.890625 78.679688 301.152344 78.550781 301.414062 78.351562 C 306.730469 90.886719 310.011719 104.074219 310.207031 117.785156 C 307.125 109.125 301.875 101.449219 295.179688 95.019531 C 294 93.902344 292.488281 95.085938 292.6875 96.460938 C 294.195312 107.15625 299.578125 120.148438 309.222656 125.988281 C 309.484375 126.121094 309.683594 126.183594 309.878906 126.183594 C 309.617188 129.792969 309.09375 133.46875 308.371094 137.144531 C 306.597656 145.804688 303.90625 154.335938 300.496094 162.601562 C 302.464844 152.695312 302.398438 142.65625 296.359375 133.863281 C 295.703125 132.878906 294.0625 132.945312 293.734375 134.191406 C 290.78125 144.953125 289.734375 159.453125 296.296875 169.097656 C 296.492188 169.359375 296.6875 169.492188 296.886719 169.554688 C 296.820312 169.753906 296.820312 169.949219 296.753906 170.148438 C 296.6875 170.34375 296.753906 170.539062 296.820312 170.671875 C 291.636719 181.367188 285.203125 191.472656 278.183594 200.789062 C 277.066406 202.234375 275.953125 203.675781 274.769531 205.054688 C 277.984375 198.753906 279.496094 191.601562 279.429688 184.449219 C 279.429688 183.402344 278.3125 182.8125 277.394531 183.269531 C 273.390625 185.433594 271.421875 190.882812 269.847656 195.015625 C 267.75 200.722656 266.894531 206.695312 266.960938 212.796875 C 266.960938 213.058594 267.027344 213.320312 267.15625 213.519531 C 260.203125 220.539062 252.457031 226.574219 243.925781 231.367188 C 248.914062 225.917969 251.933594 218.765625 252.785156 211.417969 C 252.984375 210.039062 251.078125 209.582031 250.226562 210.367188 C 243.859375 216.273438 236.839844 225.722656 236.578125 234.777344 L 236.511719 234.84375 C 236.378906 234.972656 236.3125 235.105469 236.25 235.238281 C 231.195312 237.53125 225.878906 239.371094 220.300781 240.8125 C 219.1875 241.078125 219.644531 242.453125 220.628906 242.324219 Z M 265.648438 22.1875 C 265.1875 21.792969 264.730469 21.398438 264.269531 20.941406 C 264.074219 20.546875 263.941406 20.21875 263.746094 19.890625 C 264.402344 20.613281 265.058594 21.398438 265.648438 22.1875 Z M 265.648438 22.1875 " fill-opacity="1" fill-rule="nonzero"/></g><g clip-path="url(#137faf3431)"><path fill="#ffffff" d="M 138.136719 26.746094 C 133.945312 30.34375 132.480469 31.789062 131.058594 33.703125 C 124.195312 42.972656 120.222656 53.441406 119.261719 64.785156 C 119.210938 65.355469 119.132812 66.652344 119.082031 67.671875 C 118.988281 69.683594 118.859375 70.652344 118.515625 71.785156 C 118.054688 73.324219 117.121094 74.929688 115.894531 76.3125 C 114.171875 78.238281 113.023438 79.570312 112.269531 80.503906 C 109.039062 84.488281 106.117188 89.050781 104.097656 93.277344 C 101.867188 97.90625 100.550781 101.769531 99.316406 107.214844 C 99.246094 107.5 99.273438 107.679688 99.460938 108.246094 C 99.777344 109.199219 99.984375 109.5625 100.496094 110.128906 L 100.941406 110.617188 L 100.574219 111.835938 C 100.367188 112.507812 100.035156 113.519531 99.820312 114.085938 C 98.46875 117.753906 98.261719 118.65625 98.203125 121.285156 C 98.148438 123.3125 98.21875 124.136719 98.578125 125.855469 C 99.152344 128.652344 101.269531 133.757812 104.335938 139.769531 C 110.488281 151.808594 118.464844 162.339844 128.0625 171.058594 C 133.648438 176.132812 137.835938 179.199219 142.0625 181.304688 L 143.457031 182 L 144.175781 181.949219 C 145.410156 181.855469 146.3125 181.5625 147.203125 180.945312 L 147.699219 180.609375 L 149.523438 181.921875 C 156.96875 187.316406 161.382812 190.082031 166.25 192.410156 C 167.003906 192.769531 167.671875 193.0625 167.730469 193.0625 C 167.910156 193.0625 172.296875 190.820312 173.660156 190.03125 C 176.195312 188.570312 178.433594 187.09375 183.382812 183.632812 C 185.175781 182.378906 186.785156 181.246094 186.964844 181.117188 L 187.300781 180.882812 L 187.910156 181.296875 C 188.714844 181.828125 189.332031 182.050781 190.367188 182.164062 L 191.214844 182.257812 L 192.3125 181.8125 C 194.445312 180.960938 195.917969 180.035156 199.785156 177.128906 C 204.511719 173.574219 207.554688 170.9375 211.316406 167.117188 C 213.542969 164.847656 214.460938 163.851562 216.25 161.757812 C 221.984375 155.03125 226.902344 147.636719 231.726562 138.480469 C 234.585938 133.050781 236.09375 128.722656 236.695312 124.222656 C 236.890625 122.695312 236.890625 119.414062 236.6875 117.875 C 236.335938 115.152344 235.445312 112.164062 234.355469 110 L 234.054688 109.390625 L 234.441406 108.609375 C 235.039062 107.378906 235.136719 106.933594 235.136719 105.285156 C 235.136719 103.601562 234.988281 102.84375 234.285156 100.757812 C 231.28125 91.894531 226.277344 83.691406 219.222656 76.074219 C 218.101562 74.863281 217.757812 74.398438 217.269531 73.375 C 216.558594 71.925781 216.472656 71.367188 216.242188 67.148438 C 215.96875 62.105469 215.113281 57.210938 213.628906 52.316406 C 212.722656 49.292969 211.625 46.542969 210.074219 43.398438 C 208.523438 40.257812 207.527344 38.523438 205.753906 35.886719 C 203.433594 32.421875 202.292969 31.144531 199.355469 28.722656 C 197.746094 27.390625 195.6875 25.820312 195.515625 25.785156 C 195.429688 25.777344 195.035156 26.128906 194.53125 26.675781 C 189.605469 31.976562 188.800781 33.066406 185.910156 38.246094 C 184.515625 40.753906 183.246094 42.875 182.613281 43.777344 C 181.996094 44.65625 180.472656 46.261719 179.589844 46.972656 C 176.949219 49.101562 173.925781 50.433594 170.488281 50.976562 C 169.050781 51.199219 166.207031 51.171875 164.792969 50.925781 C 161.542969 50.347656 158.039062 48.785156 155.71875 46.886719 C 153.628906 45.179688 152.28125 43.511719 150.699219 40.652344 C 149.496094 38.496094 147.433594 35.308594 144.691406 31.367188 C 142.984375 28.910156 140.21875 25.070312 140.148438 25.0625 C 140.125 25.0625 139.214844 25.820312 138.136719 26.746094 Z M 140.261719 31.230469 L 140.777344 31.941406 L 141.109375 33.601562 C 141.605469 36.117188 142.113281 38.023438 142.890625 40.265625 C 143.390625 41.707031 143.476562 41.898438 143.628906 41.847656 C 143.699219 41.8125 143.757812 41.726562 143.757812 41.648438 C 143.757812 41.5625 143.570312 40.144531 143.328125 38.496094 C 143.097656 36.847656 142.890625 35.394531 142.875 35.265625 C 142.859375 35.136719 142.875 35.050781 142.910156 35.078125 C 142.953125 35.101562 143.441406 35.808594 144.007812 36.648438 L 145.035156 38.179688 L 145.171875 39.285156 C 145.429688 41.339844 145.90625 43.347656 146.507812 44.910156 C 146.703125 45.4375 146.789062 45.566406 146.910156 45.53125 C 147.046875 45.496094 147.054688 45.410156 146.960938 44.277344 C 146.78125 41.964844 146.738281 40.996094 146.824219 41.082031 C 146.867188 41.125 147.269531 41.804688 147.714844 42.585938 C 148.394531 43.753906 148.554688 44.121094 148.675781 44.6875 C 149.171875 46.992188 150.019531 49.421875 150.929688 51.191406 C 151.28125 51.886719 151.46875 52.074219 151.589844 51.867188 C 151.632812 51.808594 151.007812 48.074219 150.835938 47.28125 C 150.808594 47.195312 151.304688 47.617188 151.921875 48.226562 C 153.703125 49.972656 155.382812 51.15625 157.59375 52.246094 C 161.40625 54.121094 165.023438 54.890625 169 54.6875 C 174.34375 54.410156 179.398438 52.222656 183.144531 48.554688 C 183.675781 48.03125 184.113281 47.644531 184.113281 47.695312 C 184.105469 47.738281 183.941406 48.691406 183.734375 49.800781 C 183.382812 51.738281 183.367188 51.9375 183.617188 51.945312 C 183.710938 51.945312 184.234375 50.957031 184.679688 49.929688 C 185.210938 48.691406 185.75 47.066406 186.09375 45.703125 C 186.324219 44.738281 186.425781 44.484375 186.941406 43.613281 C 187.257812 43.074219 187.667969 42.359375 187.847656 42.042969 C 188.0625 41.664062 188.191406 41.511719 188.207031 41.605469 C 188.226562 41.683594 188.175781 42.574219 188.097656 43.597656 C 187.976562 45.125 187.976562 45.453125 188.070312 45.511719 C 188.234375 45.617188 188.285156 45.53125 188.621094 44.59375 C 189.195312 42.988281 189.699219 40.71875 189.90625 38.8125 C 189.949219 38.339844 190.042969 38.117188 190.523438 37.3125 C 191.300781 35.980469 192.113281 34.792969 192.148438 34.949219 C 192.15625 35.015625 191.960938 36.582031 191.695312 38.417969 C 191.234375 41.707031 191.222656 41.886719 191.488281 41.898438 C 191.515625 41.898438 191.667969 41.519531 191.839844 41.054688 C 192.664062 38.824219 193.398438 36.167969 193.878906 33.753906 C 194.015625 33.023438 194.1875 32.363281 194.257812 32.269531 C 194.316406 32.175781 194.703125 31.738281 195.113281 31.289062 C 195.800781 30.542969 195.875 30.484375 196.03125 30.59375 C 196.503906 30.921875 198.574219 32.699219 199.347656 33.4375 C 200.273438 34.320312 201.273438 35.59375 202.730469 37.730469 C 207.476562 44.722656 210.621094 52.589844 212 60.921875 C 212.445312 63.628906 212.660156 65.730469 212.816406 69.082031 C 212.925781 71.570312 213.175781 72.878906 213.800781 74.390625 C 214.410156 75.824219 215.164062 76.90625 216.84375 78.734375 C 218.957031 81.054688 220.425781 82.824219 222.042969 85.015625 C 225.804688 90.105469 228.898438 95.957031 230.859375 101.710938 C 231.382812 103.25 231.589844 104.074219 231.640625 104.941406 C 231.714844 106.175781 231.398438 107.097656 230.585938 107.953125 L 230.121094 108.4375 L 230.292969 109.261719 C 230.40625 109.820312 230.585938 110.335938 230.832031 110.839844 C 233.445312 116.0625 234.003906 121.414062 232.523438 127.132812 C 232.246094 128.207031 232.101562 128.585938 232.09375 128.242188 C 232.09375 127.847656 231.40625 125.382812 230.953125 124.09375 C 230.183594 121.9375 229.113281 119.515625 227.957031 117.335938 C 227.578125 116.613281 227.253906 116.027344 227.242188 116.046875 C 227.234375 116.054688 227.371094 116.648438 227.5625 117.351562 C 228.222656 119.875 228.792969 123.054688 229 125.296875 C 229.113281 126.515625 229.121094 129.152344 229.007812 130.019531 C 228.898438 130.894531 228.75 131.566406 228.675781 131.566406 C 228.648438 131.566406 227.347656 130.234375 225.796875 128.613281 C 224.238281 126.988281 222.960938 125.664062 222.953125 125.675781 C 222.933594 125.691406 223.15625 126.386719 223.449219 127.238281 C 224.554688 130.535156 225.214844 133.085938 225.289062 134.398438 C 225.34375 135.113281 225.316406 135.328125 225.117188 136.074219 C 224.921875 136.8125 224.082031 138.773438 223.996094 138.6875 C 223.980469 138.667969 223.894531 138.429688 223.800781 138.152344 C 223.527344 137.378906 222.917969 136.554688 221.871094 135.550781 C 221.007812 134.71875 219.542969 133.585938 218.609375 133.027344 C 218.324219 132.855469 218.28125 132.847656 218.324219 132.964844 C 218.417969 133.222656 219.394531 136.382812 219.660156 137.320312 C 220.039062 138.652344 220.570312 140.851562 220.75 141.828125 C 221.074219 143.652344 220.871094 146.140625 220.046875 150.28125 C 219.839844 151.320312 219.824219 151.363281 219.308594 152.085938 C 215.804688 156.980469 212.363281 161.058594 208.359375 165.0625 C 204.8125 168.609375 202.089844 170.953125 197.359375 174.511719 C 194.609375 176.582031 193.503906 177.3125 192.125 177.988281 C 190.410156 178.832031 190.316406 178.804688 191.566406 177.800781 C 193.605469 176.167969 195.277344 174.492188 196.769531 172.578125 C 198.070312 170.902344 199.449219 168.695312 200.167969 167.105469 C 200.425781 166.539062 200.453125 166.445312 200.332031 166.402344 C 200.167969 166.335938 200.210938 166.28125 199.484375 167.296875 C 197.992188 169.375 196.628906 170.953125 194.761719 172.800781 C 192.964844 174.578125 191.386719 175.902344 189.742188 177.035156 L 189.152344 177.429688 L 188.832031 176.941406 C 188.652344 176.667969 188.414062 176.355469 188.292969 176.246094 L 188.089844 176.058594 L 186.417969 177.183594 C 185.5 177.808594 184.199219 178.710938 183.511719 179.191406 C 182.828125 179.671875 181.34375 180.710938 180.214844 181.511719 C 176.5625 184.078125 173.617188 185.984375 170.960938 187.496094 C 169.898438 188.097656 167.851562 189.113281 167.6875 189.113281 C 167.355469 189.113281 163.191406 186.828125 160.765625 185.316406 C 157.558594 183.304688 149.386719 177.570312 148.007812 176.347656 C 146.292969 174.84375 142 170.285156 138.410156 166.179688 C 137.5625 165.207031 136.792969 164.324219 136.679688 164.210938 L 136.492188 164.015625 L 136.613281 164.53125 C 137.296875 167.503906 139.695312 171.453125 143.011719 175.070312 C 143.449219 175.542969 143.6875 175.84375 143.542969 175.738281 C 142.179688 174.769531 139.0625 171.738281 137.589844 169.957031 C 137.101562 169.367188 136.355469 168.421875 135.945312 167.855469 C 134.777344 166.273438 134.796875 166.292969 134.667969 166.410156 C 134.488281 166.589844 135.667969 168.875 136.929688 170.773438 C 138.503906 173.144531 140.9375 175.808594 143.082031 177.515625 C 143.570312 177.902344 143.988281 178.238281 144.007812 178.265625 C 144.125 178.367188 143.292969 177.964844 142.457031 177.507812 C 138.710938 175.464844 134.460938 172.175781 129.207031 167.269531 C 124.738281 163.097656 120.144531 157.882812 116.476562 152.839844 L 115.6875 151.742188 L 115.328125 149.878906 C 114.636719 146.261719 114.402344 143.882812 114.617188 142.378906 C 114.859375 140.722656 115.570312 137.921875 116.605469 134.589844 C 116.898438 133.671875 117.109375 132.914062 117.09375 132.898438 C 117.078125 132.878906 116.65625 133.136719 116.167969 133.464844 C 113.726562 135.121094 112.125 136.78125 111.660156 138.164062 C 111.523438 138.558594 111.457031 138.667969 111.386719 138.589844 C 111.183594 138.324219 110.683594 137.207031 110.429688 136.417969 C 110.1875 135.6875 110.144531 135.441406 110.144531 134.742188 C 110.144531 133.464844 110.652344 131.367188 111.839844 127.726562 C 112.191406 126.652344 112.46875 125.761719 112.449219 125.75 C 112.441406 125.734375 111.164062 127.039062 109.613281 128.652344 C 108.070312 130.261719 106.777344 131.546875 106.734375 131.503906 C 106.699219 131.472656 106.597656 131.066406 106.511719 130.621094 C 106.308594 129.488281 106.308594 126.257812 106.511719 124.523438 C 106.796875 122.222656 107.265625 119.738281 107.898438 117.316406 C 108.0625 116.679688 108.183594 116.148438 108.164062 116.132812 C 108.125 116.078125 107.105469 118.019531 106.476562 119.34375 C 104.757812 122.996094 103.960938 125.3125 103.257812 128.644531 C 103.222656 128.835938 103.195312 128.808594 103.050781 128.429688 C 102.132812 126.042969 101.6875 123.90625 101.6875 121.859375 C 101.6875 119.910156 101.972656 118.519531 102.871094 116.105469 C 103.402344 114.671875 103.820312 113.355469 104.558594 110.890625 C 105.0625 109.183594 105.117188 108.941406 105.03125 108.683594 C 104.875 108.210938 104.617188 108.039062 103.925781 107.953125 C 102.84375 107.816406 102.8125 107.722656 103.238281 106.003906 C 105.578125 96.625 110.109375 88.207031 116.992188 80.4375 C 119.671875 77.414062 120.265625 76.621094 121.050781 75.007812 C 122.125 72.808594 122.457031 71.160156 122.679688 66.976562 C 123.296875 55.449219 127.109375 44.921875 134.03125 35.660156 C 135.027344 34.332031 135.695312 33.652344 138.359375 31.265625 C 139.40625 30.328125 139.523438 30.242188 139.628906 30.371094 C 139.695312 30.449219 139.980469 30.835938 140.261719 31.230469 Z M 104.644531 130.921875 C 105.039062 132.476562 105.777344 134.546875 106.359375 135.738281 C 106.796875 136.625 107.042969 137.011719 107.523438 137.542969 C 108.347656 138.460938 109.03125 139.855469 109.769531 142.113281 C 110.308594 143.746094 111.242188 147.285156 111.183594 147.457031 C 111.15625 147.542969 111.027344 147.335938 108.472656 143.160156 C 106.082031 139.253906 104.78125 137.019531 104.4375 136.253906 C 104.140625 135.570312 104.042969 134.933594 104.042969 133.5 C 104.054688 132.0625 104.234375 129.789062 104.34375 129.910156 C 104.378906 129.941406 104.507812 130.398438 104.644531 130.921875 Z M 104.644531 130.921875 " fill-opacity="1" fill-rule="nonzero"/></g><path fill="#ffffff" d="M 201.460938 43.417969 C 193.253906 49.144531 187.625 54.085938 184.386719 58.414062 C 183.289062 59.875 182.269531 61.703125 181.96875 62.734375 L 181.867188 63.09375 L 181.335938 62.871094 C 178.765625 61.816406 175.542969 61.050781 173.652344 61.050781 L 172.855469 61.050781 L 174.140625 61.761719 C 177.832031 63.824219 181.027344 66.203125 183.726562 68.910156 C 186.8125 71.992188 188.773438 75.050781 189.75 78.269531 C 190.144531 79.550781 190.160156 79.84375 189.808594 79 C 189.011719 77.101562 187.496094 75.078125 185.296875 72.996094 C 184.753906 72.484375 184.601562 72.386719 184.507812 72.464844 C 184.402344 72.550781 184.582031 72.867188 185.59375 74.390625 C 187.378906 77.058594 188.003906 78.28125 188.515625 80.039062 C 188.695312 80.667969 188.945312 82.015625 188.886719 82.058594 C 188.875 82.066406 188.609375 82.101562 188.292969 82.136719 L 187.71875 82.1875 L 187.667969 81.863281 C 187.402344 80.082031 186.75 78.519531 185.785156 77.308594 C 185.285156 76.683594 184.351562 75.824219 184.171875 75.824219 C 183.984375 75.824219 184.050781 76.125 184.34375 76.570312 C 185.40625 78.160156 186.023438 79.964844 186.101562 81.742188 L 186.125 82.378906 L 185.65625 82.488281 C 185.398438 82.546875 185.183594 82.589844 185.183594 82.582031 C 185.175781 82.574219 185.113281 82.257812 185.039062 81.878906 C 184.839844 80.890625 184.394531 79.757812 184.214844 79.792969 C 184.085938 79.816406 184.0625 80.015625 184.019531 81.234375 C 183.992188 82.015625 183.957031 82.71875 183.949219 82.796875 C 183.941406 82.890625 183.683594 83.0625 183.222656 83.277344 C 182.234375 83.742188 181.578125 84.214844 180.96875 84.875 C 180.453125 85.441406 179.964844 86.292969 179.863281 86.808594 C 179.828125 86.953125 179.777344 87.074219 179.734375 87.074219 C 179.613281 87.074219 179.21875 86.328125 179.050781 85.769531 C 178.6875 84.609375 178.765625 83.054688 179.273438 81.585938 C 179.390625 81.234375 179.46875 80.933594 179.441406 80.910156 C 179.425781 80.882812 179.007812 81.269531 178.519531 81.757812 C 176.847656 83.441406 175.828125 85.347656 175.449219 87.503906 C 175.289062 88.421875 175.3125 90.210938 175.5 91.199219 C 175.792969 92.742188 176.546875 94.710938 177.394531 96.101562 L 177.703125 96.609375 L 178.226562 96.222656 C 179.382812 95.378906 182.597656 93.242188 183.769531 92.527344 C 185.398438 91.550781 187.539062 90.484375 188.542969 90.167969 C 189.117188 89.976562 189.511719 89.910156 189.949219 89.910156 C 190.496094 89.910156 190.625 89.945312 191.25 90.269531 C 192.519531 90.929688 195.371094 92.914062 197.289062 94.480469 L 197.90625 94.984375 L 197.632812 95.378906 C 196.492188 96.976562 194.050781 99.589844 193.015625 100.328125 C 191.625 101.308594 191.277344 101.359375 186.324219 101.230469 C 181.585938 101.101562 179.484375 101.253906 178.699219 101.789062 C 178.277344 102.070312 177.816406 103.066406 177.601562 104.125 C 177.277344 105.800781 177.191406 108.660156 177.402344 111.339844 L 177.457031 112.027344 L 177.085938 111.597656 C 176.882812 111.355469 176.203125 110.53125 175.585938 109.75 C 172.109375 105.386719 169.480469 101.230469 168.3125 98.25 C 167.960938 97.355469 167.585938 96.015625 167.566406 95.621094 L 167.558594 95.363281 L 167.480469 95.621094 C 167.449219 95.757812 167.328125 96.207031 167.234375 96.609375 C 166.574219 99.296875 164.347656 103.25 160.886719 107.859375 C 159.609375 109.5625 157.636719 112.007812 157.585938 111.964844 C 157.578125 111.949219 157.59375 111.449219 157.636719 110.867188 C 157.9375 106.742188 157.492188 103.007812 156.582031 102.039062 C 155.882812 101.273438 153.84375 101.074219 148.425781 101.230469 C 144.664062 101.339844 143.707031 101.289062 142.953125 100.910156 C 142.660156 100.765625 142.179688 100.457031 141.871094 100.226562 C 141.066406 99.613281 139.148438 97.613281 138.035156 96.222656 L 137.074219 95.019531 L 137.355469 94.78125 C 137.898438 94.296875 140.648438 92.246094 141.617188 91.59375 C 142.15625 91.222656 142.984375 90.707031 143.457031 90.441406 C 144.238281 89.996094 144.367188 89.953125 144.914062 89.925781 C 145.652344 89.882812 146.285156 90.039062 147.511719 90.5625 C 149.601562 91.457031 153.035156 93.535156 156.214844 95.828125 C 156.816406 96.265625 157.320312 96.609375 157.335938 96.589844 C 157.355469 96.574219 157.59375 96.152344 157.867188 95.648438 C 159.335938 93.019531 159.941406 90.246094 159.601562 87.796875 C 159.273438 85.460938 157.988281 83.0625 156.179688 81.449219 C 155.476562 80.8125 155.488281 80.804688 155.753906 81.648438 C 156.105469 82.738281 156.207031 83.449219 156.164062 84.445312 C 156.113281 85.398438 155.898438 86.191406 155.519531 86.773438 L 155.296875 87.109375 L 155.210938 86.902344 C 155.171875 86.78125 154.980469 86.371094 154.792969 85.976562 C 154.246094 84.816406 153.140625 83.855469 151.613281 83.203125 C 151.261719 83.054688 151.109375 82.933594 151.066406 82.789062 C 151.039062 82.675781 151.015625 81.980469 151.007812 81.242188 C 150.996094 80.007812 150.964844 79.78125 150.765625 79.773438 C 150.59375 79.773438 150.097656 81.113281 149.917969 82.078125 C 149.839844 82.488281 149.789062 82.609375 149.695312 82.574219 C 149.625 82.539062 149.414062 82.496094 149.222656 82.460938 L 148.871094 82.410156 L 148.925781 81.535156 C 149.027344 79.929688 149.617188 78.175781 150.542969 76.75 C 150.945312 76.132812 151.007812 75.988281 150.910156 75.910156 C 150.757812 75.78125 150.335938 76.097656 149.523438 76.972656 C 148.882812 77.671875 148.316406 78.589844 147.90625 79.636719 C 147.613281 80.359375 147.355469 81.449219 147.355469 81.929688 L 147.355469 82.207031 L 146.910156 82.144531 C 146.660156 82.121094 146.386719 82.09375 146.3125 82.09375 C 146.105469 82.09375 146.113281 81.671875 146.320312 80.71875 C 146.765625 78.71875 147.605469 77.035156 149.617188 74.0625 C 150.707031 72.464844 150.636719 72.601562 150.484375 72.472656 C 150.378906 72.386719 150.167969 72.550781 149.230469 73.46875 C 147.167969 75.496094 145.839844 77.371094 145.066406 79.300781 C 144.828125 79.921875 144.871094 79.578125 145.1875 78.484375 C 146.945312 72.34375 152.824219 66.1875 161.492188 61.410156 L 162.136719 61.050781 L 161.320312 61.050781 C 159.515625 61.050781 156.292969 61.796875 153.945312 62.769531 C 153.609375 62.914062 153.285156 63.027344 153.234375 63.027344 C 153.183594 63.027344 153.011719 62.675781 152.847656 62.253906 C 151.355469 58.257812 146.0625 52.695312 137.972656 46.613281 C 135.050781 44.414062 132.910156 42.945312 132.800781 43.066406 C 132.601562 43.28125 129.347656 51.472656 128.007812 55.125 C 125.988281 60.628906 125.617188 62.011719 125.421875 64.742188 C 125.207031 67.648438 125.679688 71.210938 126.679688 74.347656 L 126.988281 75.316406 L 127.597656 74.722656 C 129.105469 73.253906 131.609375 71.539062 134.71875 69.835938 C 136.527344 68.847656 136.378906 68.933594 136.132812 68.988281 C 136.011719 69.003906 134.761719 69.246094 133.347656 69.511719 C 131.933594 69.777344 130.71875 70.007812 130.648438 70.035156 C 130.578125 70.058594 130.734375 69.863281 130.992188 69.597656 C 131.609375 68.960938 133.003906 67.914062 134.761719 66.761719 C 135.539062 66.246094 136.191406 65.816406 136.210938 65.800781 C 136.292969 65.738281 135.953125 62.476562 135.566406 59.652344 C 135.488281 59.136719 135.582031 59.125 136.3125 59.597656 C 136.980469 60.039062 138.015625 61.023438 138.769531 61.953125 C 139.285156 62.589844 139.320312 62.621094 139.257812 62.339844 C 138.90625 60.628906 137.355469 57.570312 135.753906 55.441406 L 135.257812 54.78125 L 133.320312 57.269531 C 131.875 59.125 131.367188 59.71875 131.351562 59.589844 C 131.28125 59.167969 131.683594 57.632812 132.371094 55.65625 C 133.046875 53.722656 134.71875 49.886719 134.890625 49.886719 C 135.042969 49.886719 136.292969 50.632812 136.714844 50.976562 C 139.6875 53.40625 142.875 58.3125 145.941406 65.171875 L 146.730469 66.933594 L 145.695312 67.964844 C 143.363281 70.265625 140.945312 73.609375 138.839844 77.421875 L 138.265625 78.460938 L 137.777344 78.570312 C 136.9375 78.761719 135.230469 79.335938 134.1875 79.78125 C 132.660156 80.4375 131.121094 81.347656 129.824219 82.351562 C 129.542969 82.574219 129.21875 82.789062 129.097656 82.824219 C 128.789062 82.917969 126.003906 84.824219 124.503906 85.96875 C 120.359375 89.121094 117.863281 91.832031 116.871094 94.289062 C 116.347656 95.59375 113.699219 103.875 113.785156 103.953125 C 113.796875 103.960938 114.859375 103.601562 116.125 103.136719 C 117.402344 102.679688 118.449219 102.304688 118.449219 102.3125 C 118.457031 102.320312 118.234375 102.800781 117.949219 103.394531 C 116.382812 106.648438 115.3125 109.785156 114.667969 112.972656 C 114.242188 115.152344 114.230469 115.160156 114.4375 115.160156 C 114.574219 115.160156 114.6875 114.910156 115.140625 113.597656 C 116.082031 110.824219 117.308594 107.910156 118.5 105.628906 C 119.125 104.433594 120.445312 102.105469 120.496094 102.105469 C 120.511719 102.105469 120.433594 102.390625 120.316406 102.722656 C 119.964844 103.761719 119.03125 106.855469 118.566406 108.539062 C 117.152344 113.640625 116.453125 117.378906 116.367188 120.230469 C 116.3125 121.929688 116.425781 122.847656 116.757812 123.628906 C 116.84375 123.820312 116.941406 124.164062 116.972656 124.402344 C 117.078125 125.117188 117.367188 126.222656 117.632812 126.851562 C 118.097656 127.984375 118.671875 128.816406 120.136719 130.492188 C 121.128906 131.617188 122.527344 133.480469 123.089844 134.417969 C 124 135.921875 124.53125 137.3125 124.949219 139.296875 C 125.078125 139.886719 125.269531 140.703125 125.386719 141.117188 C 125.902344 142.996094 127.410156 145.238281 129.75 147.59375 C 130.984375 148.828125 131.289062 149.078125 131.4375 148.933594 C 131.503906 148.863281 131.324219 148.613281 130.792969 148.023438 C 128.644531 145.632812 127.195312 143.445312 126.578125 141.613281 C 126.457031 141.261719 126.261719 140.371094 126.148438 139.640625 C 126.03125 138.910156 125.875 138.042969 125.808594 137.722656 C 125.269531 135.328125 123.886719 132.707031 121.738281 130.019531 C 120.855469 128.929688 120.839844 128.910156 122.886719 130.835938 C 124.863281 132.691406 126.332031 134.433594 127.210938 135.988281 C 127.453125 136.410156 127.871094 137.320312 128.136719 138.007812 C 128.890625 139.964844 129.578125 141.246094 130.929688 143.289062 C 134.230469 148.238281 140.054688 154.300781 144.1875 157.074219 C 145.394531 157.882812 150.679688 161 151.914062 161.636719 L 152.25 161.808594 L 151.683594 160.75 C 149.078125 155.890625 146.128906 149.542969 145.609375 147.660156 C 144.71875 144.492188 143.851562 139.234375 143.125 132.675781 L 142.839844 130.132812 L 142.429688 129.109375 C 140.671875 124.695312 136.792969 119.078125 131.597656 113.453125 L 130.800781 112.585938 L 131.460938 112.585938 C 132.464844 112.585938 133.792969 112.824219 134.246094 113.082031 C 137.023438 114.664062 139.609375 116.722656 141.632812 118.972656 C 142.847656 120.324219 143.378906 121.054688 144.589844 123.039062 C 144.640625 123.113281 144.699219 123.121094 144.785156 123.0625 C 144.898438 122.996094 144.898438 122.925781 144.761719 122.53125 C 144.484375 121.75 143.707031 120.21875 143.097656 119.285156 C 142.582031 118.503906 141.898438 117.609375 140.828125 116.320312 C 140.5625 116.003906 140.578125 116.011719 141.265625 116.519531 C 142.625 117.515625 143.800781 118.546875 145.230469 119.980469 L 146.660156 121.421875 L 149.558594 118.355469 C 151.152344 116.671875 152.523438 115.222656 152.609375 115.117188 C 152.761719 114.945312 152.769531 114.945312 152.703125 115.117188 C 152.667969 115.210938 152.359375 116.113281 152.015625 117.128906 C 151.46875 118.742188 151.339844 119.042969 150.929688 119.617188 C 150.011719 120.898438 149.558594 121.664062 148.847656 123.105469 C 147.46875 125.921875 146.765625 128.652344 146.621094 131.796875 C 146.558594 133 146.558594 133.027344 146.738281 133.027344 C 146.882812 133.027344 146.9375 132.941406 147.011719 132.527344 C 147.414062 130.5625 147.90625 128.851562 148.554688 127.210938 C 148.925781 126.292969 149.667969 124.730469 149.550781 125.148438 C 148.445312 128.808594 148.546875 133.328125 149.804688 136.683594 C 150.082031 137.433594 150.792969 138.953125 150.859375 138.953125 C 150.886719 138.953125 150.964844 138.917969 151.023438 138.882812 C 151.109375 138.824219 151.101562 138.738281 150.996094 138.429688 C 150.765625 137.785156 150.363281 136.195312 150.226562 135.386719 C 150.039062 134.296875 149.902344 132.234375 149.976562 131.523438 L 150.039062 130.921875 L 150.183594 131.4375 C 150.9375 134.132812 153.15625 136.890625 156.09375 138.804688 C 158.503906 140.359375 160.917969 141.074219 163.035156 140.84375 C 164.507812 140.679688 165.992188 140.164062 167.046875 139.441406 L 167.507812 139.125 L 167.894531 139.390625 C 168.097656 139.535156 168.628906 139.820312 169.058594 140.027344 C 171.910156 141.367188 174.773438 141.144531 178.082031 139.304688 C 180.195312 138.136719 182.390625 136.09375 183.574219 134.1875 C 184 133.507812 184.515625 132.40625 184.722656 131.773438 C 184.824219 131.445312 184.945312 131.144531 184.988281 131.101562 C 185.082031 130.980469 185.074219 132.785156 184.96875 133.929688 C 184.832031 135.371094 184.4375 137.242188 183.992188 138.496094 C 183.882812 138.816406 183.882812 138.859375 184 138.910156 C 184.164062 138.96875 184.199219 138.917969 184.53125 138.265625 C 185.183594 136.996094 185.785156 135.054688 186.058594 133.328125 C 186.167969 132.632812 186.203125 131.890625 186.203125 130.535156 C 186.203125 128.558594 186.066406 127.425781 185.621094 125.761719 C 185.5 125.339844 185.421875 124.988281 185.433594 124.96875 C 185.484375 124.925781 186.261719 126.695312 186.675781 127.804688 C 187.164062 129.117188 187.589844 130.621094 187.898438 132.074219 C 188.054688 132.855469 188.121094 133.027344 188.242188 133.027344 C 188.378906 133.027344 188.398438 132.929688 188.398438 132.140625 C 188.398438 127.992188 186.761719 123.25 184.050781 119.566406 C 183.660156 119.035156 183.539062 118.75 183.101562 117.421875 C 182.820312 116.578125 182.511719 115.675781 182.40625 115.417969 L 182.21875 114.945312 L 182.554688 115.289062 C 182.742188 115.480469 183.984375 116.792969 185.3125 118.210938 C 186.648438 119.628906 187.875 120.933594 188.054688 121.113281 L 188.371094 121.449219 L 188.824219 120.941406 C 190.023438 119.628906 191.910156 117.902344 193.324219 116.828125 C 194.496094 115.933594 194.574219 115.917969 193.863281 116.722656 C 192.339844 118.441406 191.070312 120.460938 190.332031 122.308594 C 190.074219 122.96875 190.066406 123.027344 190.230469 123.089844 C 190.316406 123.121094 190.523438 122.875 190.882812 122.28125 C 192.964844 118.886719 196.980469 115.117188 200.570312 113.195312 C 201.308594 112.800781 202.515625 112.558594 203.542969 112.601562 L 204.171875 112.628906 L 203.296875 113.570312 C 198.15625 119.171875 194.28125 124.78125 192.59375 129.09375 C 192.15625 130.191406 192.15625 130.207031 191.945312 132.191406 C 190.949219 141.546875 189.492188 148.785156 188.121094 151.148438 C 187.625 152 190.195312 148.785156 191.738281 146.632812 C 194.308594 143.03125 195.894531 140.15625 196.671875 137.714844 C 198.078125 133.308594 199.398438 130.457031 201.503906 127.324219 C 203.492188 124.34375 205.585938 122.324219 207.417969 121.601562 C 207.828125 121.441406 207.863281 121.441406 207.804688 121.578125 C 207.21875 123.027344 206.296875 125.828125 205.796875 127.65625 C 205.136719 130.132812 204.675781 132.898438 204.675781 134.476562 L 204.675781 135.113281 L 206.628906 132.203125 C 207.707031 130.605469 209.148438 128.5 209.84375 127.527344 C 211.992188 124.503906 212.78125 122.632812 213.082031 119.84375 C 213.261719 118.175781 213.097656 116.691406 212.507812 114.429688 C 211.949219 112.273438 211.703125 110.796875 211.316406 107.386719 C 210.640625 101.351562 209.953125 98.371094 208.6875 96.007812 C 208.042969 94.796875 207.050781 93.636719 206.148438 93.042969 C 205.953125 92.914062 205.796875 92.785156 205.816406 92.769531 C 205.882812 92.710938 207.410156 93.199219 208.472656 93.621094 C 210.921875 94.597656 212.96875 96.023438 213.929688 97.425781 C 214.082031 97.640625 214.21875 97.8125 214.230469 97.792969 C 214.28125 97.75 213.972656 96.421875 213.722656 95.550781 C 212.371094 90.929688 209.894531 86.730469 206.773438 83.742188 C 206.269531 83.261719 205.917969 82.867188 205.988281 82.867188 C 206.082031 82.867188 206.328125 81.972656 206.988281 79.320312 C 207.476562 77.378906 208.015625 75.316406 208.207031 74.75 C 209.859375 69.65625 210.082031 64.5625 208.832031 60.414062 C 208.445312 59.125 207.597656 56.722656 206.585938 54.007812 C 205.472656 51.027344 202.484375 43.539062 202.21875 43.066406 C 202.164062 42.960938 202.011719 43.039062 201.460938 43.417969 Z M 170.488281 124.394531 C 172.230469 124.675781 174.003906 125.398438 174.757812 126.136719 C 175.554688 126.910156 175.949219 127.925781 175.871094 128.988281 C 175.828125 129.480469 175.132812 132.074219 174.9375 132.433594 C 174.695312 132.898438 171.535156 134.144531 168.722656 134.882812 C 167.386719 135.234375 167.5 135.242188 165.273438 134.597656 C 163.644531 134.132812 162.152344 133.566406 160.980469 132.984375 L 160.070312 132.527344 L 159.632812 131.035156 C 159.109375 129.289062 159.042969 128.867188 159.171875 128.183594 C 159.359375 127.144531 159.984375 126.222656 160.894531 125.640625 C 161.914062 124.988281 163.804688 124.429688 165.539062 124.273438 C 166.726562 124.164062 169.488281 124.230469 170.488281 124.394531 Z M 134.460938 135.945312 C 135.761719 138.445312 136.996094 140.980469 137.648438 142.515625 C 138.394531 144.269531 138.917969 145.230469 140.097656 147 C 141.265625 148.761719 143.585938 151.914062 145.265625 154.027344 C 146.722656 155.863281 146.917969 156.121094 146.660156 155.90625 C 146.550781 155.804688 145.769531 155.160156 144.941406 154.472656 C 140.714844 150.96875 136.953125 147.371094 135.480469 145.402344 C 134.195312 143.683594 133.457031 141.082031 133.484375 138.351562 C 133.484375 137.90625 133.390625 136.609375 133.269531 135.472656 C 133.148438 134.347656 133.046875 133.394531 133.046875 133.371094 C 133.046875 133.273438 133.390625 133.902344 134.460938 135.945312 Z M 134.460938 135.945312 " fill-opacity="1" fill-rule="nonzero"/><path fill="#ffffff" d="M 166.496094 125.640625 C 166.027344 125.675781 165.332031 125.769531 164.953125 125.847656 C 163.996094 126.058594 162.804688 126.652344 162.265625 127.1875 C 162.03125 127.425781 161.835938 127.65625 161.835938 127.691406 C 161.835938 127.734375 162.171875 127.648438 162.574219 127.519531 C 164.363281 126.910156 166.855469 126.59375 168.542969 126.757812 C 169.777344 126.867188 171.390625 127.175781 172.375 127.496094 C 172.761719 127.613281 173.101562 127.691406 173.128906 127.65625 C 173.152344 127.632812 172.964844 127.410156 172.699219 127.152344 C 171.835938 126.335938 170.386719 125.785156 168.820312 125.683594 C 168.441406 125.65625 167.960938 125.621094 167.746094 125.605469 C 167.535156 125.589844 166.976562 125.605469 166.496094 125.640625 Z M 166.496094 125.640625 " fill-opacity="1" fill-rule="nonzero"/><path fill="#ffffff" d="M 139.164062 71.484375 C 138.007812 71.796875 137.289062 72.25 136.046875 73.460938 C 135.550781 73.941406 134.957031 74.476562 134.734375 74.648438 C 134.023438 75.179688 132.808594 75.710938 131.25 76.167969 C 130.425781 76.417969 129.730469 76.621094 129.714844 76.640625 C 129.679688 76.675781 130.5625 79.269531 130.640625 79.363281 C 130.664062 79.398438 130.984375 79.242188 131.332031 79.027344 C 132.902344 78.058594 134.882812 77.273438 136.234375 77.09375 L 136.972656 76.992188 L 137.382812 76.054688 C 138.171875 74.242188 139.164062 72.621094 139.996094 71.785156 L 140.425781 71.355469 L 140.011719 71.367188 C 139.789062 71.367188 139.40625 71.417969 139.164062 71.484375 Z M 139.164062 71.484375 " fill-opacity="1" fill-rule="nonzero"/><path fill="#ffffff" d="M 214.632812 92.941406 C 214.820312 94.375 215.222656 95.851562 215.644531 96.695312 C 215.847656 97.097656 218.503906 100.292969 218.925781 100.628906 C 219.027344 100.714844 218.992188 100.535156 218.777344 99.898438 C 217.800781 97.019531 216.449219 94.339844 215.367188 93.140625 C 215.085938 92.828125 214.785156 92.539062 214.710938 92.484375 C 214.570312 92.417969 214.5625 92.453125 214.632812 92.941406 Z M 214.632812 92.941406 " fill-opacity="1" fill-rule="nonzero"/><path fill="#ffffff" d="M 144.570312 93.378906 C 142.761719 93.757812 141.359375 94.210938 141.359375 94.417969 C 141.359375 94.574219 143.242188 96.292969 144.1875 97.003906 C 145.085938 97.683594 146.113281 98.199219 146.824219 98.335938 C 147.957031 98.550781 150.3125 98.300781 152.78125 97.699219 L 153.910156 97.417969 L 152.753906 96.546875 C 150.304688 94.710938 148.394531 93.664062 146.859375 93.3125 C 146.070312 93.128906 145.710938 93.140625 144.570312 93.378906 Z M 144.570312 93.378906 " fill-opacity="1" fill-rule="nonzero"/><path fill="#ffffff" d="M 188.746094 93.269531 C 187.300781 93.550781 185.210938 94.675781 182.785156 96.480469 C 182.152344 96.953125 181.628906 97.363281 181.628906 97.398438 C 181.628906 97.476562 183.554688 97.929688 184.839844 98.15625 C 186.125 98.378906 187.917969 98.464844 188.609375 98.335938 C 189.757812 98.128906 191.414062 97.046875 193.175781 95.363281 C 193.699219 94.855469 194.136719 94.417969 194.136719 94.375 C 194.136719 94.253906 192.046875 93.613281 190.898438 93.398438 C 189.714844 93.164062 189.375 93.140625 188.746094 93.269531 Z M 188.746094 93.269531 " fill-opacity="1" fill-rule="nonzero"/><path fill="#ffffff" d="M 215.652344 119.996094 C 215.300781 121.535156 214.453125 123.894531 213.59375 125.761719 C 213.398438 126.179688 213.261719 126.542969 213.277344 126.558594 C 213.296875 126.574219 213.613281 126.242188 213.980469 125.8125 C 215.367188 124.195312 216.414062 122.523438 216.414062 121.894531 C 216.414062 121.292969 216.019531 119.113281 215.910156 119.113281 C 215.882812 119.113281 215.761719 119.507812 215.652344 119.996094 Z M 215.652344 119.996094 " fill-opacity="1" fill-rule="nonzero"/><path fill="#ffffff" d="M 201.207031 141.976562 C 198.609375 144.320312 195.789062 147 195.070312 147.808594 C 194.71875 148.203125 194.195312 148.871094 193.921875 149.292969 C 193.347656 150.152344 191.105469 152.976562 189.347656 155.058594 C 188.707031 155.8125 188.121094 156.507812 188.054688 156.59375 C 187.847656 156.859375 189.785156 155.417969 191.136719 154.292969 C 196.628906 149.722656 200.460938 145.402344 202.507812 141.476562 C 202.808594 140.894531 203.03125 140.414062 202.988281 140.414062 C 202.953125 140.421875 202.148438 141.117188 201.207031 141.976562 Z M 201.207031 141.976562 " fill-opacity="1" fill-rule="nonzero"/><path fill="#ffffff" d="M 178.800781 142.234375 C 177.582031 143.03125 175.972656 143.882812 175.03125 144.207031 C 174.550781 144.378906 174.3125 144.40625 173.359375 144.398438 C 172.367188 144.390625 172.117188 144.355469 171.0625 144.078125 C 170.421875 143.910156 169.359375 143.566406 168.707031 143.324219 L 167.535156 142.878906 L 167.148438 143.023438 C 166.933594 143.109375 166.144531 143.375 165.390625 143.632812 C 161.863281 144.820312 160.542969 144.734375 157.679688 143.136719 C 157.261719 142.894531 156.515625 142.441406 156.027344 142.113281 C 155.546875 141.796875 155.109375 141.527344 155.066406 141.527344 C 155.015625 141.527344 154.980469 141.933594 154.980469 142.542969 C 154.980469 145.121094 155.488281 146.871094 156.523438 147.894531 C 157.328125 148.683594 159.34375 149.570312 162.546875 150.539062 C 164.628906 151.175781 165.433594 151.320312 167.019531 151.378906 C 169.195312 151.457031 170.421875 151.226562 173.726562 150.125 C 175.699219 149.464844 177.105469 148.882812 177.839844 148.410156 C 179.367188 147.421875 180.050781 145.574219 179.984375 142.644531 L 179.957031 141.476562 Z M 178.800781 142.234375 " fill-opacity="1" fill-rule="nonzero"/><path fill="#ffffff" d="M 167.234375 162.589844 C 164.851562 164.625 161.734375 164.726562 159.34375 162.855469 L 158.726562 162.367188 L 158.777344 164.082031 C 158.835938 166.164062 159.015625 167.871094 159.351562 169.527344 C 159.984375 172.707031 160.78125 174.125 163.722656 177.328125 C 164.6875 178.375 166.949219 180.523438 167.363281 180.773438 C 167.550781 180.890625 167.601562 180.859375 168.664062 179.90625 C 170.816406 177.964844 172.863281 175.695312 173.960938 174.039062 C 175.023438 172.441406 175.640625 170.421875 176.015625 167.277344 C 176.144531 166.238281 176.339844 162.484375 176.273438 162.417969 C 176.253906 162.398438 176.058594 162.539062 175.828125 162.726562 C 175.203125 163.25 174.464844 163.671875 173.703125 163.921875 C 173.121094 164.117188 172.863281 164.152344 171.945312 164.152344 C 171.054688 164.160156 170.773438 164.125 170.234375 163.964844 C 169.359375 163.6875 168.554688 163.25 167.996094 162.753906 L 167.523438 162.332031 Z M 167.234375 162.589844 " fill-opacity="1" fill-rule="nonzero"/><path fill="#ffffff" d="M 150.183594 169.632812 C 150.859375 171.503906 152.324219 174.082031 153.78125 175.972656 C 154.542969 176.957031 156.804688 179.242188 157.808594 180.042969 C 159.488281 181.382812 161.554688 182.628906 163.558594 183.519531 C 164.65625 184 166.207031 184.59375 166.257812 184.542969 C 166.265625 184.527344 165.828125 184.148438 165.28125 183.699219 C 164.730469 183.253906 163.371094 181.972656 162.265625 180.867188 C 158.238281 176.855469 156.824219 174.605469 156 170.929688 L 155.804688 170.054688 L 154.886719 169.839844 C 153.886719 169.597656 151.089844 169.066406 150.371094 168.972656 L 149.925781 168.910156 Z M 150.183594 169.632812 " fill-opacity="1" fill-rule="nonzero"/><path fill="#ffffff" d="M 183.339844 169.175781 C 181.800781 169.453125 179.503906 169.949219 179.316406 170.042969 C 179.238281 170.085938 179.132812 170.355469 179.066406 170.664062 C 178.757812 172.199219 178.054688 174.148438 177.421875 175.230469 C 175.972656 177.695312 172.835938 181.125 169.519531 183.863281 C 169.058594 184.25 168.707031 184.558594 168.734375 184.558594 C 168.871094 184.558594 170.292969 184.019531 171.304688 183.582031 C 176.632812 181.269531 181.0625 177.183594 183.675781 172.191406 C 184.121094 171.324219 184.839844 169.683594 185.011719 169.117188 C 185.082031 168.875 185.054688 168.875 183.339844 169.175781 Z M 183.339844 169.175781 " fill-opacity="1" fill-rule="nonzero"/><g fill="#ffffff" fill-opacity="1"><g transform="translate(343.830105, 90.232921)"><g><path d="M 78.96875 -16.84375 L 84.09375 -16.84375 L 84.09375 0 L 56.0625 0 L 40.671875 -31.828125 L 35.9375 -27.9375 L 35.9375 -16.84375 L 40.875 -16.84375 L 40.875 0 L 2.046875 0 L 2.046875 -16.84375 L 7.1875 -16.84375 L 7.1875 -63.046875 L 2.046875 -63.046875 L 2.046875 -79.890625 L 40.875 -79.890625 L 40.875 -63.046875 L 35.9375 -63.046875 L 35.9375 -49.5 L 51.859375 -63.046875 L 45.390625 -63.046875 L 45.390625 -79.890625 L 83.59375 -79.890625 L 83.59375 -63.046875 L 78.453125 -63.046875 L 61.296875 -48.875 Z M 78.96875 -16.84375 "/></g></g></g><g fill="#ffffff" fill-opacity="1"><g transform="translate(429.567573, 90.232921)"><g><path d="M 41.890625 1.4375 C 28.953125 1.4375 18.972656 -1.847656 11.953125 -8.421875 C 4.941406 -14.992188 1.4375 -25.503906 1.4375 -39.953125 C 1.4375 -67.535156 14.851562 -81.328125 41.6875 -81.328125 C 48.195312 -81.328125 54.238281 -80.539062 59.8125 -78.96875 C 65.394531 -77.394531 69.554688 -75.648438 72.296875 -73.734375 L 72.296875 -48.0625 L 47.640625 -48.0625 L 47.640625 -55.453125 C 47.640625 -58.054688 47.054688 -59.972656 45.890625 -61.203125 C 44.734375 -62.429688 42.992188 -63.046875 40.671875 -63.046875 C 38.335938 -63.046875 36.585938 -62.429688 35.421875 -61.203125 C 34.265625 -59.972656 33.6875 -58.054688 33.6875 -55.453125 L 33.6875 -24.4375 C 33.6875 -21.832031 34.265625 -19.914062 35.421875 -18.6875 C 36.585938 -17.457031 38.335938 -16.84375 40.671875 -16.84375 C 42.992188 -16.84375 44.734375 -17.457031 45.890625 -18.6875 C 47.054688 -19.914062 47.640625 -21.832031 47.640625 -24.4375 L 47.640625 -32.75 L 72.296875 -32.75 L 72.296875 -6.15625 C 69.484375 -4.238281 65.320312 -2.492188 59.8125 -0.921875 C 54.300781 0.648438 48.328125 1.4375 41.890625 1.4375 Z M 41.890625 1.4375 "/></g></g></g><g fill="#ffffff" fill-opacity="1"><g transform="translate(503.702243, 90.232921)"><g><path d="M 46.921875 -79.890625 L 78.453125 -79.890625 L 78.453125 -63.046875 L 74.34375 -63.046875 L 54.53125 -27.515625 L 54.53125 -16.84375 L 59.65625 -16.84375 L 59.65625 0 L 20.640625 0 L 20.640625 -16.84375 L 25.78125 -16.84375 L 25.78125 -27.515625 L 5.34375 -63.046875 L 1.234375 -63.046875 L 1.234375 -79.890625 L 40.96875 -79.890625 L 40.96875 -63.046875 L 37.375 -63.046875 L 43.4375 -47.140625 L 44.46875 -47.140625 L 50.515625 -63.046875 L 46.921875 -63.046875 Z M 46.921875 -79.890625 "/></g></g></g><g fill="#ffffff" fill-opacity="1"><g transform="translate(343.830105, 188.482911)"><g><path d="M 40.453125 1.4375 C 29.710938 1.4375 21.414062 -0.921875 15.5625 -5.640625 C 9.707031 -10.367188 6.78125 -18.039062 6.78125 -28.65625 L 6.78125 -63.046875 L 1.640625 -63.046875 L 1.640625 -79.890625 L 39.640625 -79.890625 L 39.640625 -63.046875 L 35.53125 -63.046875 L 35.53125 -23.40625 C 35.53125 -21.15625 36.023438 -19.5 37.015625 -18.4375 C 38.015625 -17.375 39.503906 -16.84375 41.484375 -16.84375 C 43.472656 -16.84375 44.960938 -17.375 45.953125 -18.4375 C 46.941406 -19.5 47.4375 -21.15625 47.4375 -23.40625 L 47.4375 -63.046875 L 43.328125 -63.046875 L 43.328125 -79.890625 L 78.5625 -79.890625 L 78.5625 -63.046875 L 73.421875 -63.046875 L 73.421875 -28.65625 C 73.421875 -18.039062 70.578125 -10.367188 64.890625 -5.640625 C 59.210938 -0.921875 51.066406 1.4375 40.453125 1.4375 Z M 40.453125 1.4375 "/></g></g></g><g fill="#ffffff" fill-opacity="1"><g transform="translate(424.022876, 188.482911)"><g><path d="M 61.203125 -79.890625 L 94.890625 -79.890625 L 94.890625 -63.046875 L 89.75 -63.046875 L 89.75 0 L 60.890625 0 L 30.8125 -46.3125 L 30.8125 -16.84375 L 35.734375 -16.84375 L 35.734375 0 L 2.046875 0 L 2.046875 -16.84375 L 7.1875 -16.84375 L 7.1875 -63.046875 L 2.046875 -63.046875 L 2.046875 -79.890625 L 39.125 -79.890625 L 66.125 -38.71875 L 66.125 -63.046875 L 61.203125 -63.046875 Z M 61.203125 -79.890625 "/></g></g></g><g fill="#ffffff" fill-opacity="1"><g transform="translate(520.74706, 188.482911)"><g><path d="M 2.046875 0 L 2.046875 -16.84375 L 7.1875 -16.84375 L 7.1875 -63.046875 L 2.046875 -63.046875 L 2.046875 -79.890625 L 41.078125 -79.890625 L 41.078125 -63.046875 L 35.9375 -63.046875 L 35.9375 -16.84375 L 41.078125 -16.84375 L 41.078125 0 Z M 2.046875 0 "/></g></g></g><g fill="#ffffff" fill-opacity="1"><g transform="translate(563.872501, 188.482911)"><g><path d="M 45.1875 -79.890625 L 79.484375 -79.890625 L 79.484375 -63.046875 L 75.375 -63.046875 L 56.984375 0 L 23.71875 0 L 5.34375 -63.046875 L 1.234375 -63.046875 L 1.234375 -79.890625 L 40.671875 -79.890625 L 40.671875 -63.046875 L 35.328125 -63.046875 L 42.40625 -28.65625 L 43.4375 -28.65625 L 50.515625 -63.046875 L 45.1875 -63.046875 Z M 45.1875 -79.890625 "/></g></g></g><g fill="#ffffff" fill-opacity="1"><g transform="translate(644.578654, 188.482911)"><g><path d="M 4.109375 0 L 4.109375 -16.84375 L 20.125 -16.84375 L 20.125 0 Z M 4.109375 0 "/></g></g></g><g fill="#a6a6a6" fill-opacity="1"><g transform="translate(345.868084, 243.479275)"><g><path d="M 17.546875 -6.65625 C 17.546875 -4.457031 16.75 -2.738281 15.15625 -1.5 C 13.5625 -0.269531 11.394531 0.34375 8.65625 0.34375 C 5.6875 0.34375 3.40625 -0.0351562 1.8125 -0.796875 L 1.8125 -3.609375 C 2.84375 -3.171875 3.960938 -2.828125 5.171875 -2.578125 C 6.378906 -2.328125 7.578125 -2.203125 8.765625 -2.203125 C 10.703125 -2.203125 12.160156 -2.566406 13.140625 -3.296875 C 14.117188 -4.035156 14.609375 -5.0625 14.609375 -6.375 C 14.609375 -7.25 14.429688 -7.960938 14.078125 -8.515625 C 13.734375 -9.066406 13.15625 -9.570312 12.34375 -10.03125 C 11.53125 -10.5 10.289062 -11.03125 8.625 -11.625 C 6.289062 -12.457031 4.625 -13.441406 3.625 -14.578125 C 2.632812 -15.722656 2.140625 -17.21875 2.140625 -19.0625 C 2.140625 -20.988281 2.863281 -22.519531 4.3125 -23.65625 C 5.757812 -24.789062 7.675781 -25.359375 10.0625 -25.359375 C 12.539062 -25.359375 14.828125 -24.90625 16.921875 -24 L 16.015625 -21.46875 C 13.953125 -22.332031 11.941406 -22.765625 9.984375 -22.765625 C 8.453125 -22.765625 7.25 -22.429688 6.375 -21.765625 C 5.507812 -21.109375 5.078125 -20.191406 5.078125 -19.015625 C 5.078125 -18.148438 5.234375 -17.441406 5.546875 -16.890625 C 5.867188 -16.335938 6.410156 -15.828125 7.171875 -15.359375 C 7.929688 -14.898438 9.09375 -14.394531 10.65625 -13.84375 C 13.28125 -12.90625 15.082031 -11.898438 16.0625 -10.828125 C 17.050781 -9.753906 17.546875 -8.363281 17.546875 -6.65625 Z M 17.546875 -6.65625 "/></g></g></g><g fill="#a6a6a6" fill-opacity="1"><g transform="translate(365.07759, 243.479275)"><g><path d="M 10.5 0.34375 C 7.789062 0.34375 5.691406 -0.488281 4.203125 -2.15625 C 2.710938 -3.832031 1.96875 -6.195312 1.96875 -9.25 C 1.96875 -12.382812 2.722656 -14.804688 4.234375 -16.515625 C 5.742188 -18.234375 7.894531 -19.09375 10.6875 -19.09375 C 11.59375 -19.09375 12.492188 -18.992188 13.390625 -18.796875 C 14.296875 -18.597656 15.003906 -18.367188 15.515625 -18.109375 L 14.640625 -15.703125 C 14.015625 -15.953125 13.332031 -16.160156 12.59375 -16.328125 C 11.851562 -16.492188 11.195312 -16.578125 10.625 -16.578125 C 6.8125 -16.578125 4.90625 -14.144531 4.90625 -9.28125 C 4.90625 -6.976562 5.367188 -5.210938 6.296875 -3.984375 C 7.234375 -2.753906 8.613281 -2.140625 10.4375 -2.140625 C 12 -2.140625 13.597656 -2.472656 15.234375 -3.140625 L 15.234375 -0.640625 C 13.984375 0.015625 12.40625 0.34375 10.5 0.34375 Z M 10.5 0.34375 "/></g></g></g><g fill="#a6a6a6" fill-opacity="1"><g transform="translate(381.740655, 243.479275)"><g><path d="M 15.84375 0 L 15.84375 -12.125 C 15.84375 -13.65625 15.492188 -14.796875 14.796875 -15.546875 C 14.097656 -16.296875 13.007812 -16.671875 11.53125 -16.671875 C 9.550781 -16.671875 8.109375 -16.132812 7.203125 -15.0625 C 6.296875 -14 5.84375 -12.242188 5.84375 -9.796875 L 5.84375 0 L 3.015625 0 L 3.015625 -26.609375 L 5.84375 -26.609375 L 5.84375 -18.5625 C 5.84375 -17.59375 5.800781 -16.785156 5.71875 -16.140625 L 5.890625 -16.140625 C 6.441406 -17.046875 7.234375 -17.757812 8.265625 -18.28125 C 9.296875 -18.800781 10.472656 -19.0625 11.796875 -19.0625 C 14.085938 -19.0625 15.804688 -18.515625 16.953125 -17.421875 C 18.097656 -16.328125 18.671875 -14.597656 18.671875 -12.234375 L 18.671875 0 Z M 15.84375 0 "/></g></g></g><g fill="#a6a6a6" fill-opacity="1"><g transform="translate(403.223187, 243.479275)"><g><path d="M 19.1875 -9.390625 C 19.1875 -6.335938 18.414062 -3.953125 16.875 -2.234375 C 15.34375 -0.515625 13.21875 0.34375 10.5 0.34375 C 8.820312 0.34375 7.332031 -0.046875 6.03125 -0.828125 C 4.738281 -1.617188 3.738281 -2.75 3.03125 -4.21875 C 2.320312 -5.695312 1.96875 -7.421875 1.96875 -9.390625 C 1.96875 -12.441406 2.726562 -14.820312 4.25 -16.53125 C 5.78125 -18.238281 7.90625 -19.09375 10.625 -19.09375 C 13.25 -19.09375 15.332031 -18.21875 16.875 -16.46875 C 18.414062 -14.726562 19.1875 -12.367188 19.1875 -9.390625 Z M 4.90625 -9.390625 C 4.90625 -6.992188 5.382812 -5.164062 6.34375 -3.90625 C 7.300781 -2.65625 8.710938 -2.03125 10.578125 -2.03125 C 12.429688 -2.03125 13.835938 -2.65625 14.796875 -3.90625 C 15.765625 -5.15625 16.25 -6.984375 16.25 -9.390625 C 16.25 -11.773438 15.765625 -13.582031 14.796875 -14.8125 C 13.835938 -16.050781 12.414062 -16.671875 10.53125 -16.671875 C 8.675781 -16.671875 7.273438 -16.0625 6.328125 -14.84375 C 5.378906 -13.625 4.90625 -11.804688 4.90625 -9.390625 Z M 4.90625 -9.390625 "/></g></g></g><g fill="#a6a6a6" fill-opacity="1"><g transform="translate(424.363913, 243.479275)"><g><path d="M 19.1875 -9.390625 C 19.1875 -6.335938 18.414062 -3.953125 16.875 -2.234375 C 15.34375 -0.515625 13.21875 0.34375 10.5 0.34375 C 8.820312 0.34375 7.332031 -0.046875 6.03125 -0.828125 C 4.738281 -1.617188 3.738281 -2.75 3.03125 -4.21875 C 2.320312 -5.695312 1.96875 -7.421875 1.96875 -9.390625 C 1.96875 -12.441406 2.726562 -14.820312 4.25 -16.53125 C 5.78125 -18.238281 7.90625 -19.09375 10.625 -19.09375 C 13.25 -19.09375 15.332031 -18.21875 16.875 -16.46875 C 18.414062 -14.726562 19.1875 -12.367188 19.1875 -9.390625 Z M 4.90625 -9.390625 C 4.90625 -6.992188 5.382812 -5.164062 6.34375 -3.90625 C 7.300781 -2.65625 8.710938 -2.03125 10.578125 -2.03125 C 12.429688 -2.03125 13.835938 -2.65625 14.796875 -3.90625 C 15.765625 -5.15625 16.25 -6.984375 16.25 -9.390625 C 16.25 -11.773438 15.765625 -13.582031 14.796875 -14.8125 C 13.835938 -16.050781 12.414062 -16.671875 10.53125 -16.671875 C 8.675781 -16.671875 7.273438 -16.0625 6.328125 -14.84375 C 5.378906 -13.625 4.90625 -11.804688 4.90625 -9.390625 Z M 4.90625 -9.390625 "/></g></g></g><g fill="#a6a6a6" fill-opacity="1"><g transform="translate(445.504639, 243.479275)"><g><path d="M 5.84375 0 L 3.015625 0 L 3.015625 -26.609375 L 5.84375 -26.609375 Z M 5.84375 0 "/></g></g></g><g fill="#a6a6a6" fill-opacity="1"><g transform="translate(454.357418, 243.479275)"><g/></g></g><g fill="#a6a6a6" fill-opacity="1"><g transform="translate(463.449462, 243.479275)"><g><path d="M 19.1875 -9.390625 C 19.1875 -6.335938 18.414062 -3.953125 16.875 -2.234375 C 15.34375 -0.515625 13.21875 0.34375 10.5 0.34375 C 8.820312 0.34375 7.332031 -0.046875 6.03125 -0.828125 C 4.738281 -1.617188 3.738281 -2.75 3.03125 -4.21875 C 2.320312 -5.695312 1.96875 -7.421875 1.96875 -9.390625 C 1.96875 -12.441406 2.726562 -14.820312 4.25 -16.53125 C 5.78125 -18.238281 7.90625 -19.09375 10.625 -19.09375 C 13.25 -19.09375 15.332031 -18.21875 16.875 -16.46875 C 18.414062 -14.726562 19.1875 -12.367188 19.1875 -9.390625 Z M 4.90625 -9.390625 C 4.90625 -6.992188 5.382812 -5.164062 6.34375 -3.90625 C 7.300781 -2.65625 8.710938 -2.03125 10.578125 -2.03125 C 12.429688 -2.03125 13.835938 -2.65625 14.796875 -3.90625 C 15.765625 -5.15625 16.25 -6.984375 16.25 -9.390625 C 16.25 -11.773438 15.765625 -13.582031 14.796875 -14.8125 C 13.835938 -16.050781 12.414062 -16.671875 10.53125 -16.671875 C 8.675781 -16.671875 7.273438 -16.0625 6.328125 -14.84375 C 5.378906 -13.625 4.90625 -11.804688 4.90625 -9.390625 Z M 4.90625 -9.390625 "/></g></g></g><g fill="#a6a6a6" fill-opacity="1"><g transform="translate(484.590188, 243.479275)"><g><path d="M 11.453125 -16.546875 L 6.6875 -16.546875 L 6.6875 0 L 3.84375 0 L 3.84375 -16.546875 L 0.5 -16.546875 L 0.5 -17.828125 L 3.84375 -18.84375 L 3.84375 -19.890625 C 3.84375 -24.492188 5.859375 -26.796875 9.890625 -26.796875 C 10.878906 -26.796875 12.039062 -26.597656 13.375 -26.203125 L 12.640625 -23.9375 C 11.546875 -24.28125 10.609375 -24.453125 9.828125 -24.453125 C 8.765625 -24.453125 7.972656 -24.097656 7.453125 -23.390625 C 6.941406 -22.679688 6.6875 -21.539062 6.6875 -19.96875 L 6.6875 -18.75 L 11.453125 -18.75 Z M 11.453125 -16.546875 "/></g></g></g><g fill="#a6a6a6" fill-opacity="1"><g transform="translate(496.450861, 243.479275)"><g/></g></g><g fill="#a6a6a6" fill-opacity="1"><g transform="translate(505.542905, 243.479275)"><g><path d="M 14.140625 -22.765625 C 11.398438 -22.765625 9.234375 -21.847656 7.640625 -20.015625 C 6.046875 -18.191406 5.25 -15.6875 5.25 -12.5 C 5.25 -9.226562 6.015625 -6.695312 7.546875 -4.90625 C 9.085938 -3.125 11.273438 -2.234375 14.109375 -2.234375 C 15.859375 -2.234375 17.847656 -2.550781 20.078125 -3.1875 L 20.078125 -0.640625 C 18.347656 0.015625 16.210938 0.34375 13.671875 0.34375 C 9.984375 0.34375 7.140625 -0.769531 5.140625 -3 C 3.140625 -5.238281 2.140625 -8.414062 2.140625 -12.53125 C 2.140625 -15.113281 2.617188 -17.375 3.578125 -19.3125 C 4.546875 -21.25 5.9375 -22.738281 7.75 -23.78125 C 9.570312 -24.832031 11.71875 -25.359375 14.1875 -25.359375 C 16.800781 -25.359375 19.09375 -24.882812 21.0625 -23.9375 L 19.828125 -21.4375 C 17.929688 -22.320312 16.035156 -22.765625 14.140625 -22.765625 Z M 14.140625 -22.765625 "/></g></g></g><g fill="#a6a6a6" fill-opacity="1"><g transform="translate(527.623582, 243.479275)"><g><path d="M 19.1875 -9.390625 C 19.1875 -6.335938 18.414062 -3.953125 16.875 -2.234375 C 15.34375 -0.515625 13.21875 0.34375 10.5 0.34375 C 8.820312 0.34375 7.332031 -0.046875 6.03125 -0.828125 C 4.738281 -1.617188 3.738281 -2.75 3.03125 -4.21875 C 2.320312 -5.695312 1.96875 -7.421875 1.96875 -9.390625 C 1.96875 -12.441406 2.726562 -14.820312 4.25 -16.53125 C 5.78125 -18.238281 7.90625 -19.09375 10.625 -19.09375 C 13.25 -19.09375 15.332031 -18.21875 16.875 -16.46875 C 18.414062 -14.726562 19.1875 -12.367188 19.1875 -9.390625 Z M 4.90625 -9.390625 C 4.90625 -6.992188 5.382812 -5.164062 6.34375 -3.90625 C 7.300781 -2.65625 8.710938 -2.03125 10.578125 -2.03125 C 12.429688 -2.03125 13.835938 -2.65625 14.796875 -3.90625 C 15.765625 -5.15625 16.25 -6.984375 16.25 -9.390625 C 16.25 -11.773438 15.765625 -13.582031 14.796875 -14.8125 C 13.835938 -16.050781 12.414062 -16.671875 10.53125 -16.671875 C 8.675781 -16.671875 7.273438 -16.0625 6.328125 -14.84375 C 5.378906 -13.625 4.90625 -11.804688 4.90625 -9.390625 Z M 4.90625 -9.390625 "/></g></g></g><g fill="#a6a6a6" fill-opacity="1"><g transform="translate(548.764308, 243.479275)"><g><path d="M 26.90625 0 L 26.90625 -12.203125 C 26.90625 -13.691406 26.582031 -14.804688 25.9375 -15.546875 C 25.300781 -16.296875 24.3125 -16.671875 22.96875 -16.671875 C 21.207031 -16.671875 19.90625 -16.160156 19.0625 -15.140625 C 18.21875 -14.128906 17.796875 -12.570312 17.796875 -10.46875 L 17.796875 0 L 14.953125 0 L 14.953125 -12.203125 C 14.953125 -13.691406 14.628906 -14.804688 13.984375 -15.546875 C 13.347656 -16.296875 12.351562 -16.671875 11 -16.671875 C 9.21875 -16.671875 7.910156 -16.140625 7.078125 -15.078125 C 6.253906 -14.015625 5.84375 -12.265625 5.84375 -9.828125 L 5.84375 0 L 3.015625 0 L 3.015625 -18.75 L 5.3125 -18.75 L 5.78125 -16.1875 L 5.921875 -16.1875 C 6.453125 -17.09375 7.203125 -17.800781 8.171875 -18.3125 C 9.148438 -18.832031 10.242188 -19.09375 11.453125 -19.09375 C 14.390625 -19.09375 16.304688 -18.03125 17.203125 -15.90625 L 17.34375 -15.90625 C 17.90625 -16.882812 18.710938 -17.660156 19.765625 -18.234375 C 20.828125 -18.804688 22.039062 -19.09375 23.40625 -19.09375 C 25.519531 -19.09375 27.101562 -18.546875 28.15625 -17.453125 C 29.21875 -16.367188 29.75 -14.628906 29.75 -12.234375 L 29.75 0 Z M 26.90625 0 "/></g></g></g><g fill="#a6a6a6" fill-opacity="1"><g transform="translate(581.321359, 243.479275)"><g><path d="M 11.734375 0.34375 C 10.515625 0.34375 9.398438 0.117188 8.390625 -0.328125 C 7.378906 -0.785156 6.53125 -1.476562 5.84375 -2.40625 L 5.640625 -2.40625 C 5.773438 -1.3125 5.84375 -0.273438 5.84375 0.703125 L 5.84375 8.421875 L 3.015625 8.421875 L 3.015625 -18.75 L 5.3125 -18.75 L 5.71875 -16.1875 L 5.84375 -16.1875 C 6.570312 -17.207031 7.421875 -17.945312 8.390625 -18.40625 C 9.367188 -18.863281 10.484375 -19.09375 11.734375 -19.09375 C 14.222656 -19.09375 16.140625 -18.238281 17.484375 -16.53125 C 18.835938 -14.832031 19.515625 -12.453125 19.515625 -9.390625 C 19.515625 -6.304688 18.828125 -3.910156 17.453125 -2.203125 C 16.078125 -0.503906 14.171875 0.34375 11.734375 0.34375 Z M 11.328125 -16.671875 C 9.410156 -16.671875 8.023438 -16.140625 7.171875 -15.078125 C 6.316406 -14.023438 5.875 -12.34375 5.84375 -10.03125 L 5.84375 -9.390625 C 5.84375 -6.753906 6.28125 -4.867188 7.15625 -3.734375 C 8.039062 -2.597656 9.453125 -2.03125 11.390625 -2.03125 C 13.015625 -2.03125 14.285156 -2.6875 15.203125 -4 C 16.117188 -5.3125 16.578125 -7.117188 16.578125 -9.421875 C 16.578125 -11.765625 16.117188 -13.554688 15.203125 -14.796875 C 14.285156 -16.046875 12.992188 -16.671875 11.328125 -16.671875 Z M 11.328125 -16.671875 "/></g></g></g><g fill="#a6a6a6" fill-opacity="1"><g transform="translate(602.76971, 243.479275)"><g><path d="M 5.671875 -18.75 L 5.671875 -6.578125 C 5.671875 -5.054688 6.019531 -3.914062 6.71875 -3.15625 C 7.414062 -2.40625 8.503906 -2.03125 9.984375 -2.03125 C 11.953125 -2.03125 13.390625 -2.566406 14.296875 -3.640625 C 15.203125 -4.710938 15.65625 -6.460938 15.65625 -8.890625 L 15.65625 -18.75 L 18.484375 -18.75 L 18.484375 0 L 16.140625 0 L 15.734375 -2.515625 L 15.578125 -2.515625 C 14.992188 -1.585938 14.1875 -0.878906 13.15625 -0.390625 C 12.125 0.0976562 10.945312 0.34375 9.625 0.34375 C 7.34375 0.34375 5.632812 -0.195312 4.5 -1.28125 C 3.375 -2.363281 2.8125 -4.097656 2.8125 -6.484375 L 2.8125 -18.75 Z M 5.671875 -18.75 "/></g></g></g><g fill="#a6a6a6" fill-opacity="1"><g transform="translate(624.252242, 243.479275)"><g><path d="M 9.0625 -2 C 9.5625 -2 10.046875 -2.035156 10.515625 -2.109375 C 10.984375 -2.179688 11.351562 -2.257812 11.625 -2.34375 L 11.625 -0.171875 C 11.320312 -0.0234375 10.867188 0.09375 10.265625 0.1875 C 9.671875 0.289062 9.132812 0.34375 8.65625 0.34375 C 5.03125 0.34375 3.21875 -1.566406 3.21875 -5.390625 L 3.21875 -16.546875 L 0.53125 -16.546875 L 0.53125 -17.90625 L 3.21875 -19.09375 L 4.40625 -23.09375 L 6.0625 -23.09375 L 6.0625 -18.75 L 11.5 -18.75 L 11.5 -16.546875 L 6.0625 -16.546875 L 6.0625 -5.515625 C 6.0625 -4.378906 6.328125 -3.507812 6.859375 -2.90625 C 7.390625 -2.300781 8.125 -2 9.0625 -2 Z M 9.0625 -2 "/></g></g></g><g fill="#a6a6a6" fill-opacity="1"><g transform="translate(636.60855, 243.479275)"><g><path d="M 10.9375 0.34375 C 8.164062 0.34375 5.976562 -0.5 4.375 -2.1875 C 2.769531 -3.875 1.96875 -6.21875 1.96875 -9.21875 C 1.96875 -12.238281 2.710938 -14.640625 4.203125 -16.421875 C 5.691406 -18.203125 7.6875 -19.09375 10.1875 -19.09375 C 12.539062 -19.09375 14.398438 -18.316406 15.765625 -16.765625 C 17.140625 -15.222656 17.828125 -13.1875 17.828125 -10.65625 L 17.828125 -8.859375 L 4.90625 -8.859375 C 4.96875 -6.660156 5.523438 -4.988281 6.578125 -3.84375 C 7.628906 -2.707031 9.113281 -2.140625 11.03125 -2.140625 C 13.050781 -2.140625 15.046875 -2.5625 17.015625 -3.40625 L 17.015625 -0.875 C 16.015625 -0.4375 15.066406 -0.125 14.171875 0.0625 C 13.273438 0.25 12.195312 0.34375 10.9375 0.34375 Z M 10.15625 -16.71875 C 8.65625 -16.71875 7.457031 -16.222656 6.5625 -15.234375 C 5.664062 -14.253906 5.140625 -12.898438 4.984375 -11.171875 L 14.78125 -11.171875 C 14.78125 -12.960938 14.378906 -14.332031 13.578125 -15.28125 C 12.785156 -16.238281 11.644531 -16.71875 10.15625 -16.71875 Z M 10.15625 -16.71875 "/></g></g></g><g fill="#a6a6a6" fill-opacity="1"><g transform="translate(656.245329, 243.479275)"><g><path d="M 11.5625 -19.09375 C 12.394531 -19.09375 13.140625 -19.023438 13.796875 -18.890625 L 13.40625 -16.25 C 12.632812 -16.414062 11.953125 -16.5 11.359375 -16.5 C 9.835938 -16.5 8.535156 -15.882812 7.453125 -14.65625 C 6.378906 -13.425781 5.84375 -11.894531 5.84375 -10.0625 L 5.84375 0 L 3.015625 0 L 3.015625 -18.75 L 5.359375 -18.75 L 5.671875 -15.28125 L 5.8125 -15.28125 C 6.507812 -16.5 7.347656 -17.4375 8.328125 -18.09375 C 9.304688 -18.757812 10.382812 -19.09375 11.5625 -19.09375 Z M 11.5625 -19.09375 "/></g></g></g><g fill="#a6a6a6" fill-opacity="1"><g transform="translate(670.532826, 243.479275)"><g/></g></g><g fill="#a6a6a6" fill-opacity="1"><g transform="translate(679.624869, 243.479275)"><g><path d="M 7.078125 -20.03125 C 7.078125 -19.238281 7.28125 -18.488281 7.6875 -17.78125 C 8.101562 -17.070312 8.804688 -16.210938 9.796875 -15.203125 C 11.265625 -16.054688 12.285156 -16.84375 12.859375 -17.5625 C 13.441406 -18.289062 13.734375 -19.128906 13.734375 -20.078125 C 13.734375 -20.960938 13.4375 -21.679688 12.84375 -22.234375 C 12.257812 -22.785156 11.476562 -23.0625 10.5 -23.0625 C 9.488281 -23.0625 8.664062 -22.785156 8.03125 -22.234375 C 7.394531 -21.691406 7.078125 -20.957031 7.078125 -20.03125 Z M 9.734375 -2.203125 C 12.484375 -2.203125 14.765625 -3.082031 16.578125 -4.84375 L 9.09375 -12.09375 C 7.832031 -11.320312 6.9375 -10.679688 6.40625 -10.171875 C 5.882812 -9.660156 5.5 -9.113281 5.25 -8.53125 C 5 -7.945312 4.875 -7.285156 4.875 -6.546875 C 4.875 -5.210938 5.316406 -4.15625 6.203125 -3.375 C 7.085938 -2.59375 8.265625 -2.203125 9.734375 -2.203125 Z M 1.9375 -6.484375 C 1.9375 -7.960938 2.332031 -9.269531 3.125 -10.40625 C 3.914062 -11.550781 5.335938 -12.707031 7.390625 -13.875 C 6.421875 -14.957031 5.757812 -15.773438 5.40625 -16.328125 C 5.0625 -16.890625 4.785156 -17.472656 4.578125 -18.078125 C 4.378906 -18.679688 4.28125 -19.3125 4.28125 -19.96875 C 4.28125 -21.675781 4.835938 -23.007812 5.953125 -23.96875 C 7.066406 -24.925781 8.625 -25.40625 10.625 -25.40625 C 12.46875 -25.40625 13.921875 -24.925781 14.984375 -23.96875 C 16.046875 -23.019531 16.578125 -21.695312 16.578125 -20 C 16.578125 -18.78125 16.1875 -17.648438 15.40625 -16.609375 C 14.632812 -15.578125 13.351562 -14.535156 11.5625 -13.484375 L 18.53125 -6.796875 C 19.164062 -7.492188 19.671875 -8.316406 20.046875 -9.265625 C 20.429688 -10.222656 20.753906 -11.269531 21.015625 -12.40625 L 23.890625 -12.40625 C 23.117188 -9.144531 21.953125 -6.671875 20.390625 -4.984375 L 25.5 0 L 21.59375 0 L 18.421875 -3.046875 C 17.078125 -1.835938 15.707031 -0.96875 14.3125 -0.4375 C 12.925781 0.0820312 11.378906 0.34375 9.671875 0.34375 C 7.210938 0.34375 5.304688 -0.257812 3.953125 -1.46875 C 2.609375 -2.675781 1.9375 -4.347656 1.9375 -6.484375 Z M 1.9375 -6.484375 "/></g></g></g><g fill="#a6a6a6" fill-opacity="1"><g transform="translate(705.174895, 243.479275)"><g/></g></g><g fill="#a6a6a6" fill-opacity="1"><g transform="translate(714.266938, 243.479275)"><g><path d="M 3.4375 0 L 3.4375 -25 L 6.34375 -25 L 6.34375 0 Z M 3.4375 0 "/></g></g></g><g fill="#a6a6a6" fill-opacity="1"><g transform="translate(724.025519, 243.479275)"><g><path d="M 11.140625 0 L 8.234375 0 L 8.234375 -22.421875 L 0.3125 -22.421875 L 0.3125 -25 L 19.0625 -25 L 19.0625 -22.421875 L 11.140625 -22.421875 Z M 11.140625 0 "/></g></g></g><g fill="#ffffff" fill-opacity="1"><g transform="translate(129.57162, 233.469738)"><g><path d="M 24.9375 -5.3125 L 26.5625 -5.3125 L 26.5625 0 L 17.703125 0 L 12.84375 -10.0625 L 11.359375 -8.828125 L 11.359375 -5.3125 L 12.90625 -5.3125 L 12.90625 0 L 0.65625 0 L 0.65625 -5.3125 L 2.265625 -5.3125 L 2.265625 -19.921875 L 0.65625 -19.921875 L 0.65625 -25.234375 L 12.90625 -25.234375 L 12.90625 -19.921875 L 11.359375 -19.921875 L 11.359375 -15.640625 L 16.375 -19.921875 L 14.34375 -19.921875 L 14.34375 -25.234375 L 26.40625 -25.234375 L 26.40625 -19.921875 L 24.78125 -19.921875 L 19.359375 -15.4375 Z M 24.9375 -5.3125 "/></g></g></g><g fill="#ffffff" fill-opacity="1"><g transform="translate(156.632386, 233.469738)"><g><path d="M 13.234375 0.453125 C 9.148438 0.453125 6 -0.582031 3.78125 -2.65625 C 1.5625 -4.738281 0.453125 -8.0625 0.453125 -12.625 C 0.453125 -21.332031 4.691406 -25.6875 13.171875 -25.6875 C 15.222656 -25.6875 17.128906 -25.4375 18.890625 -24.9375 C 20.648438 -24.445312 21.96875 -23.898438 22.84375 -23.296875 L 22.84375 -15.1875 L 15.046875 -15.1875 L 15.046875 -17.515625 C 15.046875 -18.335938 14.863281 -18.941406 14.5 -19.328125 C 14.132812 -19.722656 13.582031 -19.921875 12.84375 -19.921875 C 12.113281 -19.921875 11.5625 -19.722656 11.1875 -19.328125 C 10.820312 -18.941406 10.640625 -18.335938 10.640625 -17.515625 L 10.640625 -7.71875 C 10.640625 -6.894531 10.820312 -6.285156 11.1875 -5.890625 C 11.5625 -5.503906 12.113281 -5.3125 12.84375 -5.3125 C 13.582031 -5.3125 14.132812 -5.503906 14.5 -5.890625 C 14.863281 -6.285156 15.046875 -6.894531 15.046875 -7.71875 L 15.046875 -10.34375 L 22.84375 -10.34375 L 22.84375 -1.953125 C 21.945312 -1.335938 20.628906 -0.78125 18.890625 -0.28125 C 17.148438 0.207031 15.265625 0.453125 13.234375 0.453125 Z M 13.234375 0.453125 "/></g></g></g><g fill="#ffffff" fill-opacity="1"><g transform="translate(180.031039, 233.469738)"><g><path d="M 14.828125 -25.234375 L 24.78125 -25.234375 L 24.78125 -19.921875 L 23.484375 -19.921875 L 17.21875 -8.6875 L 17.21875 -5.3125 L 18.84375 -5.3125 L 18.84375 0 L 6.515625 0 L 6.515625 -5.3125 L 8.140625 -5.3125 L 8.140625 -8.6875 L 1.6875 -19.921875 L 0.390625 -19.921875 L 0.390625 -25.234375 L 12.9375 -25.234375 L 12.9375 -19.921875 L 11.8125 -19.921875 L 13.71875 -14.890625 L 14.046875 -14.890625 L 15.953125 -19.921875 L 14.828125 -19.921875 Z M 14.828125 -25.234375 "/></g></g></g></svg>