<svg xmlns="http://www.w3.org/2000/svg" xmlns:xlink="http://www.w3.org/1999/xlink" width="1000" zoomAndPan="magnify" viewBox="0 0 750 108.749999" height="145" preserveAspectRatio="xMidYMid meet" version="1.0"><defs><g/></defs><g fill="#ffffff" fill-opacity="1"><g transform="translate(0.860097, 104.574211)"><g><path d="M 99.421875 -21.203125 L 105.890625 -21.203125 L 105.890625 0 L 70.59375 0 L 51.203125 -40.078125 L 45.25 -35.171875 L 45.25 -21.203125 L 51.453125 -21.203125 L 51.453125 0 L 2.578125 0 L 2.578125 -21.203125 L 9.046875 -21.203125 L 9.046875 -79.390625 L 2.578125 -79.390625 L 2.578125 -100.59375 L 51.453125 -100.59375 L 51.453125 -79.390625 L 45.25 -79.390625 L 45.25 -62.328125 L 65.296875 -79.390625 L 57.15625 -79.390625 L 57.15625 -100.59375 L 105.25 -100.59375 L 105.25 -79.390625 L 98.78125 -79.390625 L 77.1875 -61.546875 Z M 99.421875 -21.203125 "/></g></g></g><g fill="#ffffff" fill-opacity="1"><g transform="translate(108.825989, 104.574211)"><g><path d="M 52.75 1.8125 C 36.457031 1.8125 23.894531 -2.320312 15.0625 -10.59375 C 6.226562 -18.875 1.8125 -32.109375 1.8125 -50.296875 C 1.8125 -85.035156 18.707031 -102.40625 52.5 -102.40625 C 60.6875 -102.40625 68.289062 -101.410156 75.3125 -99.421875 C 82.34375 -97.441406 87.582031 -95.242188 91.03125 -92.828125 L 91.03125 -60.515625 L 60 -60.515625 L 60 -69.8125 C 60 -73.09375 59.265625 -75.507812 57.796875 -77.0625 C 56.328125 -78.613281 54.128906 -79.390625 51.203125 -79.390625 C 48.273438 -79.390625 46.078125 -78.613281 44.609375 -77.0625 C 43.140625 -75.507812 42.40625 -73.09375 42.40625 -69.8125 L 42.40625 -30.765625 C 42.40625 -27.492188 43.140625 -25.082031 44.609375 -23.53125 C 46.078125 -21.976562 48.273438 -21.203125 51.203125 -21.203125 C 54.128906 -21.203125 56.328125 -21.976562 57.796875 -23.53125 C 59.265625 -25.082031 60 -27.492188 60 -30.765625 L 60 -41.25 L 91.03125 -41.25 L 91.03125 -7.75 C 87.488281 -5.34375 82.25 -3.144531 75.3125 -1.15625 C 68.375 0.820312 60.851562 1.8125 52.75 1.8125 Z M 52.75 1.8125 "/></g></g></g><g fill="#ffffff" fill-opacity="1"><g transform="translate(202.180924, 104.574211)"><g><path d="M 59.09375 -100.59375 L 98.78125 -100.59375 L 98.78125 -79.390625 L 93.609375 -79.390625 L 68.65625 -34.65625 L 68.65625 -21.203125 L 75.125 -21.203125 L 75.125 0 L 25.984375 0 L 25.984375 -21.203125 L 32.453125 -21.203125 L 32.453125 -34.65625 L 6.71875 -79.390625 L 1.546875 -79.390625 L 1.546875 -100.59375 L 51.59375 -100.59375 L 51.59375 -79.390625 L 47.0625 -79.390625 L 54.6875 -59.34375 L 55.984375 -59.34375 L 63.609375 -79.390625 L 59.09375 -79.390625 Z M 59.09375 -100.59375 "/></g></g></g><g fill="#ffffff" fill-opacity="1"><g transform="translate(302.518099, 104.574211)"><g/></g></g><g fill="#ffffff" fill-opacity="1"><g transform="translate(341.308257, 104.574211)"><g><path d="M 50.9375 1.8125 C 37.40625 1.8125 26.953125 -1.160156 19.578125 -7.109375 C 12.210938 -13.054688 8.53125 -22.710938 8.53125 -36.078125 L 8.53125 -79.390625 L 2.0625 -79.390625 L 2.0625 -100.59375 L 49.90625 -100.59375 L 49.90625 -79.390625 L 44.734375 -79.390625 L 44.734375 -29.484375 C 44.734375 -26.640625 45.359375 -24.546875 46.609375 -23.203125 C 47.859375 -21.867188 49.734375 -21.203125 52.234375 -21.203125 C 54.734375 -21.203125 56.609375 -21.867188 57.859375 -23.203125 C 59.109375 -24.546875 59.734375 -26.640625 59.734375 -29.484375 L 59.734375 -79.390625 L 54.5625 -79.390625 L 54.5625 -100.59375 L 98.90625 -100.59375 L 98.90625 -79.390625 L 92.453125 -79.390625 L 92.453125 -36.078125 C 92.453125 -22.710938 88.875 -13.054688 81.71875 -7.109375 C 74.5625 -1.160156 64.300781 1.8125 50.9375 1.8125 Z M 50.9375 1.8125 "/></g></g></g><g fill="#ffffff" fill-opacity="1"><g transform="translate(442.291911, 104.574211)"><g><path d="M 77.0625 -100.59375 L 119.46875 -100.59375 L 119.46875 -79.390625 L 113 -79.390625 L 113 0 L 76.671875 0 L 38.78125 -58.3125 L 38.78125 -21.203125 L 45 -21.203125 L 45 0 L 2.578125 0 L 2.578125 -21.203125 L 9.046875 -21.203125 L 9.046875 -79.390625 L 2.578125 -79.390625 L 2.578125 -100.59375 L 49.265625 -100.59375 L 83.265625 -48.75 L 83.265625 -79.390625 L 77.0625 -79.390625 Z M 77.0625 -100.59375 "/></g></g></g><g fill="#ffffff" fill-opacity="1"><g transform="translate(564.092941, 104.574211)"><g><path d="M 2.578125 0 L 2.578125 -21.203125 L 9.046875 -21.203125 L 9.046875 -79.390625 L 2.578125 -79.390625 L 2.578125 -100.59375 L 51.71875 -100.59375 L 51.71875 -79.390625 L 45.25 -79.390625 L 45.25 -21.203125 L 51.71875 -21.203125 L 51.71875 0 Z M 2.578125 0 "/></g></g></g><g fill="#ffffff" fill-opacity="1"><g transform="translate(618.399126, 104.574211)"><g><path d="M 56.890625 -100.59375 L 100.078125 -100.59375 L 100.078125 -79.390625 L 94.90625 -79.390625 L 71.765625 0 L 29.875 0 L 6.71875 -79.390625 L 1.546875 -79.390625 L 1.546875 -100.59375 L 51.203125 -100.59375 L 51.203125 -79.390625 L 44.484375 -79.390625 L 53.40625 -36.078125 L 54.6875 -36.078125 L 63.609375 -79.390625 L 56.890625 -79.390625 Z M 56.890625 -100.59375 "/></g></g></g><g fill="#ffffff" fill-opacity="1"><g transform="translate(720.029303, 104.574211)"><g><path d="M 5.171875 0 L 5.171875 -21.203125 L 25.34375 -21.203125 L 25.34375 0 Z M 5.171875 0 "/></g></g></g></svg>