<svg xmlns="http://www.w3.org/2000/svg" xmlns:xlink="http://www.w3.org/1999/xlink" width="1000" zoomAndPan="magnify" viewBox="0 0 750 599.999999" height="800" preserveAspectRatio="xMidYMid meet" version="1.0"><defs><g/><clipPath id="0612f30179"><path d="M 145.894531 83 L 603.394531 83 L 603.394531 353 L 145.894531 353 Z M 145.894531 83 " clip-rule="nonzero"/></clipPath><clipPath id="a9ba1be607"><path d="M 145.894531 350 L 299 350 L 299 566 L 145.894531 566 Z M 145.894531 350 " clip-rule="nonzero"/></clipPath><clipPath id="74c799148c"><path d="M 296 350 L 451 350 L 451 577.40625 L 296 577.40625 Z M 296 350 " clip-rule="nonzero"/></clipPath><clipPath id="9800268e0d"><path d="M 449 350 L 603.394531 350 L 603.394531 567 L 449 567 Z M 449 350 " clip-rule="nonzero"/></clipPath><clipPath id="cbecce878b"><path d="M 145.894531 22.40625 L 603.394531 22.40625 L 603.394531 86 L 145.894531 86 Z M 145.894531 22.40625 " clip-rule="nonzero"/></clipPath><clipPath id="be71f3391f"><path d="M 10 36 L 260 36 L 260 547.5 L 10 547.5 Z M 10 36 " clip-rule="nonzero"/></clipPath><clipPath id="f012a2b693"><path d="M 490 36 L 739.703125 36 L 739.703125 547.5 L 490 547.5 Z M 490 36 " clip-rule="nonzero"/></clipPath><clipPath id="8b889388ae"><path d="M 220.425781 66.328125 L 529.425781 66.328125 L 529.425781 439.828125 L 220.425781 439.828125 Z M 220.425781 66.328125 " clip-rule="nonzero"/></clipPath></defs><g clip-path="url(#0612f30179)"><path fill="#0a2351" d="M 145.964844 83.519531 L 603.324219 83.519531 L 603.324219 352.921875 L 145.964844 352.921875 Z M 145.964844 83.519531 " fill-opacity="1" fill-rule="nonzero"/></g><g clip-path="url(#a9ba1be607)"><path fill="#0a2351" d="M 298.449219 565.761719 L 298.449219 350.273438 L 145.964844 350.273438 C 145.964844 449.792969 209.632812 534.414062 298.449219 565.761719 Z M 298.449219 565.761719 " fill-opacity="1" fill-rule="nonzero"/></g><g clip-path="url(#74c799148c)"><path fill="#0a2351" d="M 450.839844 350.273438 L 296.804688 350.273438 L 296.804688 565.121094 C 320.675781 573.527344 347.9375 578.738281 374.644531 578.738281 C 401.355469 578.738281 427.058594 574.167969 450.839844 565.761719 Z M 450.839844 350.273438 " fill-opacity="1" fill-rule="nonzero"/></g><g clip-path="url(#9800268e0d)"><path fill="#0a2351" d="M 603.324219 350.273438 L 449.195312 350.273438 L 449.195312 566.308594 C 538.015625 534.964844 603.324219 449.792969 603.324219 350.273438 Z M 603.324219 350.273438 " fill-opacity="1" fill-rule="nonzero"/></g><g clip-path="url(#cbecce878b)"><path fill="#0a2351" d="M 145.964844 20.828125 L 603.324219 20.828125 L 603.324219 85.804688 L 145.964844 85.804688 Z M 145.964844 20.828125 " fill-opacity="1" fill-rule="nonzero"/></g><g clip-path="url(#be71f3391f)"><path fill="#a6a6a6" d="M 258.34375 546.003906 C 245.953125 542.941406 234.144531 538.710938 222.917969 533.605469 C 222.773438 533.3125 222.625 533.019531 222.335938 532.730469 L 222.1875 532.582031 C 221.605469 512.453125 206.007812 491.445312 191.863281 478.316406 C 189.96875 476.566406 185.886719 477.585938 186.179688 480.648438 C 188.21875 496.988281 194.78125 512.890625 205.859375 524.996094 C 186.910156 514.347656 169.851562 500.925781 154.253906 485.316406 C 154.542969 484.878906 154.691406 484.296875 154.691406 483.714844 C 154.835938 470.148438 152.941406 457.015625 148.273438 444.179688 C 144.921875 434.988281 140.546875 422.882812 131.507812 418.066406 C 129.46875 417.046875 126.988281 418.359375 126.988281 420.691406 C 126.699219 436.59375 130.050781 452.496094 137.339844 466.5 C 134.71875 463.4375 132.238281 460.226562 129.761719 457.015625 C 114.015625 436.300781 99.875 413.691406 88.355469 390.058594 C 88.503906 389.765625 88.648438 389.328125 88.503906 388.890625 C 88.355469 388.453125 88.355469 388.015625 88.210938 387.578125 C 88.648438 387.433594 89.230469 387.140625 89.523438 386.558594 C 104.101562 364.964844 101.769531 332.871094 95.207031 308.949219 C 94.480469 306.175781 90.835938 306.03125 89.378906 308.21875 C 75.964844 327.765625 75.820312 350.234375 80.191406 372.113281 C 72.464844 353.878906 66.488281 334.914062 62.699219 315.511719 C 61.09375 307.34375 59.929688 299.175781 59.34375 291.152344 C 59.78125 291.152344 60.367188 291.003906 60.804688 290.714844 C 82.234375 277.730469 94.1875 248.847656 97.542969 225.066406 C 97.980469 222.003906 94.625 219.378906 92 221.859375 C 77.132812 236.152344 65.46875 253.222656 58.617188 272.476562 C 59.054688 241.988281 66.199219 212.667969 78.152344 184.804688 C 78.589844 185.242188 79.316406 185.535156 80.046875 185.535156 C 105.121094 184.367188 128.886719 162.339844 141.570312 142.207031 C 143.027344 139.875 140.546875 136.519531 137.925781 137.394531 C 119.699219 143.519531 102.933594 152.273438 88.066406 164.234375 C 101.769531 137.976562 119.261719 113.324219 138.800781 90.710938 L 138.945312 90.710938 C 151.335938 84.585938 165.769531 79.480469 175.828125 69.703125 C 184.429688 61.242188 189.09375 49.71875 193.613281 38.777344 C 195.074219 35.277344 190.699219 33.378906 188.074219 34.984375 C 187.78125 34.839844 187.636719 34.839844 187.199219 34.839844 C 175.972656 36.152344 166.0625 40.527344 157.898438 48.40625 C 149.003906 57.160156 144.777344 68.976562 138.214844 79.332031 C 123.199219 95.527344 109.496094 113.46875 97.542969 132.578125 C 101.039062 105.589844 105.558594 76.707031 98.5625 50.15625 C 97.6875 46.949219 93.75 46.949219 92.148438 49.28125 C 72.613281 76.707031 70.425781 115.804688 90.980469 143.375 C 78.007812 165.839844 67.800781 189.910156 61.242188 214.417969 C 60.65625 203.914062 59.78125 193.558594 58.617188 183.199219 C 57.886719 176.34375 59.34375 162.628906 53.367188 157.816406 C 52.203125 156.796875 50.597656 156.503906 49.285156 157.234375 C 26.6875 170.945312 36.457031 223.171875 55.992188 235.425781 C 56.136719 235.570312 56.285156 235.570312 56.574219 235.570312 C 53.222656 254.535156 52.054688 273.644531 53.660156 292.902344 L 53.660156 293.046875 C 53.660156 293.339844 53.660156 293.632812 53.804688 293.921875 C 54.390625 300.78125 55.261719 307.488281 56.574219 314.347656 C 57.449219 319.160156 58.617188 323.828125 59.78125 328.496094 C 54.535156 319.597656 47.972656 310.699219 41.851562 302.96875 C 34.707031 293.921875 26.253906 286.773438 14.878906 283.710938 C 12.257812 282.980469 10.214844 285.316406 10.652344 287.941406 C 16.191406 314.199219 36.019531 337.105469 62.261719 344.25 C 62.988281 344.398438 63.574219 344.25 64.011719 343.960938 C 72.027344 370.074219 83.691406 395.457031 97.6875 419.089844 C 92 414.421875 86.023438 410.191406 79.609375 406.6875 C 71.007812 401.875 58.90625 394.433594 48.847656 397.644531 C 47.097656 398.226562 45.789062 400.125 46.371094 401.875 C 54.972656 428.425781 82.089844 445.492188 109.496094 438.054688 L 109.640625 438.054688 C 115.617188 447.097656 122.035156 455.851562 128.59375 464.164062 C 138.945312 477.441406 150.609375 490.277344 163.4375 501.804688 C 147.398438 493.632812 127.28125 491.738281 110.515625 493.488281 C 107.746094 493.78125 105.996094 496.988281 108.183594 499.175781 C 126.40625 517.265625 154.105469 524.558594 178.453125 515.078125 C 178.746094 514.933594 178.890625 514.785156 179.035156 514.640625 C 202.214844 532.144531 228.601562 544.984375 257.761719 549.066406 C 259.507812 549.652344 260.53125 546.589844 258.34375 546.003906 Z M 161.542969 54.824219 C 161.105469 55.699219 160.8125 56.429688 160.375 57.304688 C 159.355469 58.179688 158.335938 59.054688 157.3125 60.078125 C 158.625 58.179688 160.082031 56.429688 161.542969 54.824219 Z M 161.542969 54.824219 " fill-opacity="1" fill-rule="nonzero"/></g><g clip-path="url(#f012a2b693)"><path fill="#a6a6a6" d="M 492.332031 549.359375 C 521.488281 545.273438 547.875 532.4375 571.054688 514.933594 C 571.199219 515.078125 571.492188 515.222656 571.636719 515.371094 C 595.984375 524.851562 623.683594 517.558594 641.90625 499.46875 C 644.09375 497.28125 642.34375 494.070312 639.574219 493.78125 C 622.953125 492.175781 602.691406 494.070312 586.652344 502.09375 C 599.484375 490.570312 611.144531 477.878906 621.496094 464.457031 C 628.058594 455.996094 634.324219 447.242188 640.449219 438.34375 L 640.59375 438.34375 C 668.003906 445.640625 695.117188 428.714844 703.71875 402.167969 C 704.304688 400.269531 702.992188 398.519531 701.242188 397.9375 C 691.183594 394.582031 679.082031 402.019531 670.480469 406.980469 C 664.066406 410.628906 658.089844 414.710938 652.402344 419.378906 C 666.398438 395.601562 678.0625 370.363281 686.078125 344.25 C 686.515625 344.542969 687.101562 344.691406 687.828125 344.542969 C 714.070312 337.394531 733.898438 314.492188 739.4375 288.234375 C 740.019531 285.753906 737.832031 283.417969 735.210938 284.003906 C 723.839844 286.921875 715.527344 294.070312 708.238281 303.257812 C 702.117188 310.992188 695.554688 319.890625 690.308594 328.789062 C 691.472656 324.121094 692.496094 319.304688 693.515625 314.636719 C 694.828125 307.78125 695.703125 301.070312 696.285156 294.214844 C 696.429688 293.921875 696.429688 293.632812 696.429688 293.339844 L 696.429688 293.195312 C 698.035156 274.082031 696.867188 254.828125 693.515625 235.863281 C 693.660156 235.863281 693.804688 235.714844 694.097656 235.714844 C 713.632812 223.460938 723.402344 171.238281 700.804688 157.523438 C 699.492188 156.648438 697.886719 157.085938 696.722656 158.109375 C 690.746094 163.066406 692.203125 176.636719 691.472656 183.492188 C 690.308594 193.847656 689.433594 204.351562 688.851562 214.710938 C 682.289062 190.054688 671.9375 166.132812 659.109375 143.667969 C 679.664062 116.09375 677.480469 77 657.941406 49.425781 C 656.339844 47.09375 652.257812 47.09375 651.527344 50.300781 C 644.53125 76.851562 649.050781 105.738281 652.550781 132.726562 C 640.59375 113.613281 626.890625 95.671875 611.730469 79.332031 C 605.316406 68.976562 601.085938 57.160156 592.046875 48.40625 C 583.882812 40.527344 573.96875 36.152344 562.746094 34.839844 C 562.453125 34.839844 562.160156 34.839844 561.871094 34.984375 C 559.246094 33.378906 555.019531 35.277344 556.332031 38.777344 C 560.851562 49.71875 565.515625 61.242188 574.117188 69.703125 C 584.175781 79.480469 598.609375 84.585938 611 90.710938 L 611.144531 90.710938 C 630.679688 113.324219 648.175781 137.976562 661.878906 164.234375 C 647.007812 152.273438 630.242188 143.519531 612.019531 137.394531 C 609.25 136.519531 606.917969 139.875 608.375 142.207031 C 620.914062 162.191406 644.824219 184.367188 669.898438 185.535156 C 670.625 185.535156 671.210938 185.242188 671.792969 184.804688 C 683.601562 212.667969 690.890625 241.988281 691.328125 272.480469 C 684.476562 253.222656 672.8125 236.15625 657.941406 221.859375 C 655.320312 219.378906 651.964844 222.003906 652.402344 225.066406 C 655.757812 248.847656 667.710938 277.730469 689.140625 290.714844 C 689.722656 291.003906 690.160156 291.152344 690.597656 291.152344 C 690.015625 299.175781 688.851562 307.34375 687.246094 315.511719 C 683.308594 334.769531 677.332031 353.734375 669.75 372.113281 C 674.125 350.085938 673.980469 327.765625 660.566406 308.21875 C 659.109375 306.03125 655.464844 306.175781 654.734375 308.949219 C 648.175781 332.875 645.84375 365.113281 660.421875 386.558594 C 660.859375 387.140625 661.296875 387.433594 661.734375 387.578125 C 661.585938 388.015625 661.585938 388.453125 661.441406 388.890625 C 661.296875 389.328125 661.441406 389.765625 661.585938 390.058594 C 650.070312 413.835938 635.785156 436.300781 620.183594 457.015625 C 617.707031 460.226562 615.226562 463.4375 612.605469 466.5 C 619.746094 452.496094 623.101562 436.59375 622.953125 420.691406 C 622.953125 418.359375 620.476562 417.046875 618.433594 418.066406 C 609.542969 422.882812 605.167969 434.988281 601.667969 444.179688 C 597.003906 456.871094 595.109375 470.148438 595.253906 483.714844 C 595.253906 484.296875 595.402344 484.878906 595.691406 485.316406 C 580.238281 500.925781 563.035156 514.347656 544.085938 524.996094 C 555.164062 512.890625 561.871094 496.988281 563.765625 480.648438 C 564.203125 477.585938 559.976562 476.566406 558.078125 478.316406 C 543.9375 491.445312 528.339844 512.453125 527.757812 532.582031 L 527.609375 532.730469 C 527.320312 533.019531 527.171875 533.3125 527.027344 533.605469 C 515.800781 538.710938 503.992188 542.796875 491.601562 546.003906 C 489.121094 546.589844 490.144531 549.652344 492.332031 549.359375 Z M 592.339844 59.929688 C 591.320312 59.054688 590.296875 58.179688 589.277344 57.160156 C 588.839844 56.285156 588.550781 55.554688 588.113281 54.824219 C 589.570312 56.429688 591.027344 58.179688 592.339844 59.929688 Z M 592.339844 59.929688 " fill-opacity="1" fill-rule="nonzero"/></g><g clip-path="url(#8b889388ae)"><path fill="#ffffff" d="M 309.488281 70.070312 C 300.160156 78.070312 296.894531 81.28125 293.726562 85.539062 C 278.445312 106.140625 269.589844 129.417969 267.453125 154.644531 C 267.339844 155.902344 267.167969 158.785156 267.054688 161.058594 C 266.84375 165.527344 266.558594 167.683594 265.792969 170.207031 C 264.761719 173.625 262.683594 177.195312 259.953125 180.269531 C 256.121094 184.546875 253.5625 187.503906 251.882812 189.585938 C 244.691406 198.445312 238.183594 208.585938 233.679688 217.980469 C 228.71875 228.273438 225.78125 236.867188 223.03125 248.972656 C 222.878906 249.601562 222.9375 250.003906 223.359375 251.265625 C 224.0625 253.382812 224.523438 254.1875 225.667969 255.445312 L 226.660156 256.535156 L 225.839844 259.246094 C 225.378906 260.734375 224.636719 262.988281 224.160156 264.25 C 221.144531 272.402344 220.6875 274.40625 220.550781 280.25 C 220.4375 284.757812 220.589844 286.589844 221.390625 290.410156 C 222.671875 296.632812 227.382812 307.976562 234.214844 321.34375 C 247.914062 348.113281 265.679688 371.523438 287.050781 390.90625 C 299.492188 402.191406 308.820312 409.007812 318.226562 413.6875 L 321.339844 415.234375 L 322.941406 415.121094 C 325.6875 414.910156 327.691406 414.261719 329.675781 412.886719 L 330.785156 412.140625 L 334.847656 415.0625 C 351.429688 427.054688 361.257812 433.203125 372.09375 438.378906 C 373.773438 439.179688 375.261719 439.828125 375.394531 439.828125 C 375.796875 439.828125 385.566406 434.84375 388.597656 433.085938 C 394.246094 429.839844 399.226562 426.558594 410.257812 418.863281 C 414.242188 416.074219 417.832031 413.554688 418.230469 413.265625 L 418.976562 412.75 L 420.332031 413.667969 C 422.125 414.851562 423.5 415.347656 425.808594 415.597656 L 427.695312 415.804688 L 430.136719 414.8125 C 434.890625 412.921875 438.171875 410.859375 446.777344 404.40625 C 457.308594 396.5 464.082031 390.640625 472.460938 382.140625 C 477.421875 377.101562 479.464844 374.886719 483.449219 370.226562 C 496.214844 355.273438 507.167969 338.835938 517.910156 318.480469 C 524.285156 306.410156 527.640625 296.785156 528.976562 286.78125 C 529.417969 283.382812 529.417969 276.085938 528.960938 272.667969 C 528.175781 266.617188 526.191406 259.972656 523.769531 255.160156 L 523.101562 253.804688 L 523.960938 252.066406 C 525.296875 249.335938 525.503906 248.34375 525.503906 244.675781 C 525.503906 240.933594 525.179688 239.253906 523.617188 234.613281 C 516.917969 214.90625 505.777344 196.671875 490.070312 179.734375 C 487.574219 177.042969 486.808594 176.011719 485.722656 173.738281 C 484.136719 170.511719 483.945312 169.269531 483.433594 159.894531 C 482.820312 148.683594 480.914062 137.800781 477.613281 126.917969 C 475.589844 120.195312 473.148438 114.085938 469.695312 107.097656 C 466.238281 100.109375 464.027344 96.25 460.078125 90.386719 C 454.90625 82.691406 452.367188 79.847656 445.824219 74.460938 C 442.234375 71.503906 437.65625 68.007812 437.273438 67.933594 C 437.085938 67.914062 436.207031 68.695312 435.082031 69.917969 C 424.109375 81.699219 422.316406 84.125 415.886719 95.640625 C 412.773438 101.214844 409.949219 105.929688 408.539062 107.9375 C 407.164062 109.882812 403.769531 113.453125 401.804688 115.039062 C 395.925781 119.773438 389.191406 122.734375 381.539062 123.9375 C 378.332031 124.433594 372 124.378906 368.851562 123.824219 C 361.617188 122.542969 353.8125 119.070312 348.644531 114.847656 C 343.988281 111.050781 340.992188 107.34375 337.460938 100.984375 C 334.789062 96.191406 330.191406 89.109375 324.085938 80.34375 C 320.289062 74.882812 314.125 66.347656 313.972656 66.328125 C 313.917969 66.328125 311.894531 68.007812 309.488281 70.070312 Z M 314.222656 80.039062 L 315.367188 81.625 L 316.109375 85.308594 C 317.21875 90.902344 318.34375 95.144531 320.078125 100.125 C 321.1875 103.335938 321.375 103.753906 321.71875 103.640625 C 321.871094 103.5625 322.007812 103.371094 322.007812 103.199219 C 322.007812 103.011719 321.585938 99.859375 321.050781 96.191406 C 320.539062 92.527344 320.078125 89.300781 320.042969 89.011719 C 320.003906 88.726562 320.042969 88.535156 320.117188 88.59375 C 320.210938 88.648438 321.300781 90.214844 322.558594 92.085938 L 324.847656 95.488281 L 325.15625 97.949219 C 325.726562 102.511719 326.796875 106.980469 328.132812 110.457031 C 328.570312 111.621094 328.761719 111.910156 329.027344 111.832031 C 329.332031 111.753906 329.351562 111.566406 329.144531 109.042969 C 328.742188 103.90625 328.648438 101.75 328.835938 101.941406 C 328.933594 102.035156 329.828125 103.542969 330.820312 105.28125 C 332.328125 107.878906 332.691406 108.699219 332.957031 109.960938 C 334.066406 115.078125 335.953125 120.480469 337.976562 124.414062 C 338.757812 125.960938 339.179688 126.382812 339.445312 125.925781 C 339.542969 125.789062 338.148438 117.484375 337.765625 115.726562 C 337.710938 115.535156 338.816406 116.472656 340.191406 117.828125 C 344.160156 121.703125 347.898438 124.339844 352.820312 126.765625 C 361.3125 130.925781 369.367188 132.644531 378.21875 132.1875 C 390.125 131.574219 401.382812 126.707031 409.722656 118.554688 C 410.90625 117.386719 411.878906 116.527344 411.878906 116.644531 C 411.859375 116.738281 411.496094 118.859375 411.039062 121.320312 C 410.257812 125.636719 410.21875 126.078125 410.769531 126.097656 C 410.980469 126.097656 412.144531 123.898438 413.136719 121.609375 C 414.320312 118.859375 415.523438 115.25 416.285156 112.214844 C 416.800781 110.074219 417.03125 109.503906 418.175781 107.574219 C 418.878906 106.371094 419.796875 104.785156 420.199219 104.078125 C 420.675781 103.238281 420.960938 102.894531 421 103.105469 C 421.035156 103.277344 420.921875 105.261719 420.75 107.535156 C 420.484375 110.933594 420.484375 111.660156 420.695312 111.792969 C 421.054688 112.023438 421.171875 111.832031 421.914062 109.75 C 423.191406 106.179688 424.320312 101.136719 424.777344 96.898438 C 424.871094 95.847656 425.082031 95.351562 426.152344 93.558594 C 427.886719 90.597656 429.699219 87.964844 429.777344 88.308594 C 429.796875 88.460938 429.355469 91.933594 428.765625 96.019531 C 427.734375 103.335938 427.714844 103.734375 428.308594 103.753906 C 428.363281 103.753906 428.707031 102.914062 429.089844 101.882812 C 430.921875 96.917969 432.5625 91.019531 433.628906 85.652344 C 433.9375 84.03125 434.316406 82.558594 434.46875 82.347656 C 434.601562 82.140625 435.460938 81.164062 436.378906 80.171875 C 437.90625 78.511719 438.078125 78.378906 438.417969 78.625 C 439.46875 79.351562 444.085938 83.304688 445.804688 84.945312 C 447.863281 86.914062 450.097656 89.738281 453.339844 94.492188 C 463.910156 110.035156 470.914062 127.527344 473.988281 146.050781 C 474.980469 152.066406 475.457031 156.742188 475.800781 164.191406 C 476.046875 169.726562 476.601562 172.628906 477.992188 175.992188 C 479.347656 179.179688 481.027344 181.585938 484.765625 185.652344 C 489.480469 190.808594 492.742188 194.742188 496.351562 199.613281 C 504.726562 210.933594 511.613281 223.9375 515.984375 236.734375 C 517.148438 240.152344 517.605469 241.984375 517.71875 243.914062 C 517.890625 246.664062 517.1875 248.707031 515.375 250.613281 L 514.34375 251.683594 L 514.726562 253.515625 C 514.972656 254.757812 515.375 255.902344 515.925781 257.03125 C 521.746094 268.640625 522.988281 280.535156 519.6875 293.253906 C 519.074219 295.640625 518.75 296.480469 518.730469 295.71875 C 518.730469 294.839844 517.207031 289.359375 516.195312 286.496094 C 514.476562 281.703125 512.089844 276.316406 509.515625 271.464844 C 508.675781 269.863281 507.949219 268.5625 507.933594 268.601562 C 507.914062 268.621094 508.21875 269.9375 508.636719 271.503906 C 510.105469 277.117188 511.386719 284.183594 511.84375 289.167969 C 512.089844 291.878906 512.109375 297.742188 511.863281 299.671875 C 511.613281 301.617188 511.289062 303.105469 511.117188 303.105469 C 511.0625 303.105469 508.160156 300.148438 504.707031 296.539062 C 501.234375 292.929688 498.390625 289.988281 498.371094 290.007812 C 498.335938 290.046875 498.832031 291.59375 499.480469 293.484375 C 501.941406 300.816406 503.410156 306.488281 503.582031 309.410156 C 503.695312 310.992188 503.636719 311.472656 503.199219 313.132812 C 502.761719 314.773438 500.890625 319.128906 500.699219 318.9375 C 500.660156 318.898438 500.472656 318.363281 500.261719 317.753906 C 499.652344 316.035156 498.296875 314.203125 495.96875 311.96875 C 494.039062 310.117188 490.777344 307.59375 488.699219 306.351562 C 488.070312 305.972656 487.972656 305.953125 488.070312 306.21875 C 488.277344 306.792969 490.453125 313.820312 491.046875 315.902344 C 491.882812 318.859375 493.066406 323.75 493.46875 325.925781 C 494.195312 329.972656 493.734375 335.511719 491.902344 344.714844 C 491.445312 347.027344 491.40625 347.121094 490.261719 348.726562 C 482.457031 359.609375 474.789062 368.679688 465.878906 377.578125 C 457.976562 385.464844 451.910156 390.675781 441.378906 398.582031 C 435.253906 403.183594 432.789062 404.808594 429.71875 406.316406 C 425.902344 408.1875 425.691406 408.128906 428.476562 405.894531 C 433.019531 402.269531 436.742188 398.542969 440.0625 394.285156 C 442.960938 390.5625 446.03125 385.65625 447.636719 382.121094 C 448.207031 380.863281 448.265625 380.652344 448 380.558594 C 447.636719 380.402344 447.730469 380.289062 446.109375 382.542969 C 442.789062 387.164062 439.753906 390.675781 435.59375 394.78125 C 431.589844 398.734375 428.078125 401.675781 424.414062 404.195312 L 423.097656 405.074219 L 422.390625 403.988281 C 421.992188 403.375 421.457031 402.6875 421.191406 402.441406 L 420.730469 402.019531 L 417.011719 404.519531 C 414.96875 405.914062 412.070312 407.921875 410.542969 408.988281 C 409.015625 410.058594 405.714844 412.371094 403.195312 414.144531 C 395.066406 419.855469 388.503906 424.09375 382.589844 427.453125 C 380.222656 428.792969 375.664062 431.042969 375.300781 431.042969 C 374.554688 431.042969 365.28125 425.964844 359.882812 422.605469 C 352.746094 418.136719 334.542969 405.378906 331.46875 402.667969 C 327.65625 399.328125 318.09375 389.1875 310.101562 380.0625 C 308.210938 377.902344 306.492188 375.9375 306.246094 375.6875 L 305.824219 375.25 L 306.09375 376.394531 C 307.621094 383 312.960938 391.785156 320.347656 399.824219 C 321.320312 400.875 321.855469 401.542969 321.53125 401.3125 C 318.496094 399.15625 311.550781 392.414062 308.269531 388.460938 C 307.179688 387.144531 305.519531 385.042969 304.605469 383.785156 C 302.007812 380.269531 302.046875 380.308594 301.761719 380.574219 C 301.359375 380.976562 303.992188 386.054688 306.800781 390.277344 C 310.308594 395.546875 315.730469 401.464844 320.5 405.265625 C 321.585938 406.125 322.523438 406.871094 322.558594 406.925781 C 322.828125 407.15625 320.976562 406.257812 319.105469 405.246094 C 310.769531 400.703125 301.304688 393.390625 289.605469 382.484375 C 279.648438 373.207031 269.417969 361.613281 261.253906 350.40625 L 259.496094 347.960938 L 258.695312 343.816406 C 257.148438 335.777344 256.636719 330.488281 257.113281 327.148438 C 257.644531 323.460938 259.230469 317.238281 261.539062 309.828125 C 262.1875 307.785156 262.664062 306.105469 262.625 306.066406 C 262.589844 306.027344 261.652344 306.601562 260.566406 307.328125 C 255.128906 311.011719 251.558594 314.699219 250.527344 317.773438 C 250.222656 318.652344 250.070312 318.898438 249.917969 318.726562 C 249.460938 318.136719 248.355469 315.652344 247.78125 313.894531 C 247.246094 312.273438 247.152344 311.71875 247.152344 310.171875 C 247.152344 307.328125 248.277344 302.667969 250.929688 294.570312 C 251.710938 292.183594 252.324219 290.199219 252.285156 290.179688 C 252.265625 290.140625 249.421875 293.042969 245.96875 296.632812 C 242.535156 300.203125 239.652344 303.070312 239.558594 302.972656 C 239.480469 302.898438 239.253906 302 239.0625 301.007812 C 238.601562 298.488281 238.601562 291.304688 239.0625 287.449219 C 239.691406 282.332031 240.742188 276.8125 242.152344 271.429688 C 242.515625 270.015625 242.78125 268.832031 242.742188 268.792969 C 242.648438 268.679688 240.378906 272.996094 238.984375 275.933594 C 235.148438 284.050781 233.375 289.207031 231.808594 296.613281 C 231.734375 297.035156 231.675781 296.976562 231.351562 296.136719 C 229.3125 290.828125 228.320312 286.074219 228.320312 281.53125 C 228.320312 277.195312 228.949219 274.101562 230.953125 268.734375 C 232.136719 265.546875 233.070312 262.625 234.710938 257.144531 C 235.835938 253.34375 235.949219 252.8125 235.761719 252.238281 C 235.417969 251.1875 234.84375 250.804688 233.296875 250.613281 C 230.894531 250.308594 230.816406 250.097656 231.773438 246.28125 C 236.980469 225.429688 247.074219 206.714844 262.398438 189.433594 C 268.371094 182.710938 269.6875 180.957031 271.441406 177.367188 C 273.828125 172.476562 274.570312 168.8125 275.066406 159.511719 C 276.441406 133.886719 284.933594 110.476562 300.347656 89.890625 C 302.5625 86.933594 304.050781 85.421875 309.984375 80.113281 C 312.3125 78.035156 312.582031 77.84375 312.808594 78.128906 C 312.960938 78.300781 313.589844 79.160156 314.222656 80.039062 Z M 234.902344 301.675781 C 235.777344 305.132812 237.421875 309.734375 238.71875 312.386719 C 239.691406 314.355469 240.246094 315.214844 241.3125 316.398438 C 243.144531 318.441406 244.671875 321.535156 246.3125 326.554688 C 247.515625 330.183594 249.59375 338.050781 249.460938 338.433594 C 249.402344 338.625 249.117188 338.164062 243.429688 328.886719 C 238.105469 320.199219 235.207031 315.234375 234.445312 313.535156 C 233.777344 312.003906 233.566406 310.59375 233.566406 307.402344 C 233.585938 304.214844 233.984375 299.15625 234.234375 299.421875 C 234.308594 299.5 234.597656 300.511719 234.902344 301.675781 Z M 234.902344 301.675781 " fill-opacity="1" fill-rule="nonzero"/></g><path fill="#ffffff" d="M 450.515625 107.132812 C 432.238281 119.871094 419.703125 130.851562 412.488281 140.472656 C 410.046875 143.71875 407.777344 147.789062 407.109375 150.078125 L 406.878906 150.882812 L 405.695312 150.386719 C 399.972656 148.035156 392.796875 146.335938 388.578125 146.335938 L 386.804688 146.335938 L 389.667969 147.921875 C 397.890625 152.503906 405.007812 157.792969 411.019531 163.808594 C 417.886719 170.664062 422.257812 177.460938 424.433594 184.621094 C 425.3125 187.46875 425.347656 188.117188 424.566406 186.246094 C 422.792969 182.023438 419.414062 177.519531 414.511719 172.898438 C 413.308594 171.753906 412.964844 171.542969 412.753906 171.714844 C 412.527344 171.90625 412.925781 172.613281 415.179688 175.992188 C 419.148438 181.929688 420.539062 184.640625 421.6875 188.554688 C 422.085938 189.949219 422.640625 192.949219 422.507812 193.042969 C 422.488281 193.0625 421.894531 193.140625 421.191406 193.214844 L 419.910156 193.328125 L 419.796875 192.605469 C 419.207031 188.652344 417.753906 185.175781 415.597656 182.484375 C 414.492188 181.089844 412.414062 179.179688 412.011719 179.179688 C 411.589844 179.179688 411.746094 179.847656 412.394531 180.839844 C 414.757812 184.375 416.132812 188.382812 416.304688 192.335938 L 416.363281 193.75 L 415.3125 193.996094 C 414.738281 194.132812 414.261719 194.226562 414.261719 194.207031 C 414.242188 194.1875 414.109375 193.484375 413.9375 192.640625 C 413.5 190.445312 412.507812 187.925781 412.105469 188.003906 C 411.820312 188.058594 411.761719 188.5 411.667969 191.210938 C 411.609375 192.949219 411.535156 194.511719 411.515625 194.683594 C 411.496094 194.894531 410.925781 195.277344 409.894531 195.753906 C 407.699219 196.785156 406.230469 197.835938 404.875 199.304688 C 403.730469 200.566406 402.644531 202.457031 402.414062 203.601562 C 402.335938 203.925781 402.222656 204.195312 402.128906 204.195312 C 401.859375 204.195312 400.984375 202.535156 400.601562 201.292969 C 399.800781 198.714844 399.972656 195.257812 401.097656 191.992188 C 401.363281 191.210938 401.535156 190.542969 401.480469 190.484375 C 401.441406 190.425781 400.503906 191.285156 399.417969 192.375 C 395.699219 196.117188 393.425781 200.355469 392.585938 205.148438 C 392.222656 207.191406 392.28125 211.164062 392.703125 213.359375 C 393.351562 216.796875 395.03125 221.171875 396.917969 224.265625 L 397.605469 225.390625 L 398.769531 224.53125 C 401.34375 222.660156 408.5 217.90625 411.113281 216.320312 C 414.738281 214.144531 419.511719 211.777344 421.742188 211.070312 C 423.019531 210.648438 423.898438 210.496094 424.871094 210.496094 C 426.09375 210.496094 426.378906 210.574219 427.773438 211.296875 C 430.597656 212.769531 436.949219 217.179688 441.222656 220.65625 L 442.597656 221.78125 L 441.988281 222.660156 C 439.449219 226.210938 434.011719 232.015625 431.703125 233.660156 C 428.613281 235.835938 427.828125 235.949219 416.800781 235.664062 C 406.25 235.378906 401.574219 235.722656 399.820312 236.90625 C 398.882812 237.535156 397.851562 239.75 397.375 242.097656 C 396.652344 245.820312 396.460938 252.179688 396.9375 258.136719 L 397.050781 259.664062 L 396.230469 258.710938 C 395.773438 258.175781 394.265625 256.34375 392.890625 254.605469 C 385.144531 244.90625 379.289062 235.664062 376.691406 229.039062 C 375.910156 227.050781 375.070312 224.074219 375.03125 223.195312 L 375.011719 222.621094 L 374.839844 223.195312 C 374.765625 223.5 374.5 224.492188 374.289062 225.390625 C 372.820312 231.367188 367.859375 240.152344 360.148438 250.40625 C 357.304688 254.1875 352.917969 259.628906 352.804688 259.53125 C 352.785156 259.496094 352.820312 258.386719 352.917969 257.089844 C 353.585938 247.921875 352.59375 239.617188 350.570312 237.457031 C 349.007812 235.757812 344.464844 235.320312 332.40625 235.664062 C 324.027344 235.910156 321.890625 235.796875 320.210938 234.957031 C 319.5625 234.632812 318.496094 233.945312 317.808594 233.429688 C 316.015625 232.074219 311.742188 227.625 309.261719 224.53125 L 307.125 221.859375 L 307.753906 221.324219 C 308.953125 220.253906 315.078125 215.691406 317.234375 214.238281 C 318.4375 213.417969 320.289062 212.273438 321.339844 211.679688 C 323.074219 210.6875 323.359375 210.589844 324.582031 210.535156 C 326.222656 210.4375 327.636719 210.78125 330.363281 211.949219 C 335.019531 213.933594 342.671875 218.554688 349.75 223.652344 C 351.085938 224.625 352.210938 225.390625 352.25 225.351562 C 352.289062 225.3125 352.820312 224.378906 353.433594 223.25 C 356.695312 217.410156 358.050781 211.242188 357.289062 205.796875 C 356.5625 200.605469 353.699219 195.277344 349.675781 191.6875 C 348.109375 190.273438 348.128906 190.253906 348.71875 192.125 C 349.503906 194.550781 349.730469 196.136719 349.636719 198.351562 C 349.519531 200.472656 349.042969 202.226562 348.203125 203.527344 L 347.707031 204.269531 L 347.519531 203.8125 C 347.421875 203.546875 347.003906 202.628906 346.582031 201.75 C 345.363281 199.171875 342.898438 197.035156 339.503906 195.582031 C 338.722656 195.257812 338.378906 194.992188 338.28125 194.667969 C 338.226562 194.417969 338.167969 192.871094 338.148438 191.230469 C 338.128906 188.480469 338.054688 187.984375 337.613281 187.964844 C 337.234375 187.964844 336.125 190.941406 335.726562 193.082031 C 335.554688 193.996094 335.4375 194.265625 335.230469 194.1875 C 335.078125 194.113281 334.601562 194.015625 334.179688 193.941406 L 333.398438 193.824219 L 333.511719 191.878906 C 333.742188 188.308594 335.058594 184.414062 337.117188 181.242188 C 338.015625 179.867188 338.148438 179.542969 337.9375 179.371094 C 337.59375 179.085938 336.660156 179.792969 334.847656 181.738281 C 333.417969 183.285156 332.15625 185.328125 331.242188 187.660156 C 330.59375 189.261719 330.019531 191.6875 330.019531 192.757812 L 330.019531 193.367188 L 329.027344 193.234375 C 328.476562 193.175781 327.863281 193.121094 327.691406 193.121094 C 327.234375 193.121094 327.253906 192.183594 327.710938 190.0625 C 328.703125 185.617188 330.574219 181.871094 335.058594 175.265625 C 337.480469 171.714844 337.328125 172.019531 336.984375 171.734375 C 336.757812 171.542969 336.277344 171.90625 334.199219 173.949219 C 329.601562 178.453125 326.644531 182.617188 324.925781 186.914062 C 324.390625 188.289062 324.488281 187.523438 325.191406 185.101562 C 329.105469 171.445312 342.195312 157.753906 361.503906 147.136719 L 362.933594 146.335938 L 361.121094 146.335938 C 357.097656 146.335938 349.921875 147.996094 344.695312 150.15625 C 343.949219 150.480469 343.222656 150.730469 343.109375 150.730469 C 342.996094 150.730469 342.613281 149.945312 342.25 149.011719 C 338.929688 140.128906 327.140625 127.757812 309.125 114.238281 C 302.621094 109.347656 297.851562 106.085938 297.601562 106.351562 C 297.164062 106.828125 289.914062 125.046875 286.933594 133.160156 C 282.433594 145.402344 281.613281 148.476562 281.171875 154.546875 C 280.695312 161 281.746094 168.925781 283.976562 175.894531 L 284.664062 178.054688 L 286.019531 176.734375 C 289.378906 173.472656 294.949219 169.652344 301.875 165.871094 C 305.902344 163.675781 305.578125 163.867188 305.023438 163.980469 C 304.757812 164.019531 301.972656 164.554688 298.824219 165.144531 C 295.675781 165.738281 292.964844 166.253906 292.8125 166.308594 C 292.660156 166.367188 293.003906 165.929688 293.574219 165.335938 C 294.949219 163.921875 298.058594 161.59375 301.972656 159.035156 C 303.707031 157.890625 305.15625 156.933594 305.195312 156.894531 C 305.386719 156.761719 304.625 149.507812 303.765625 143.222656 C 303.59375 142.078125 303.804688 142.058594 305.425781 143.109375 C 306.914062 144.082031 309.222656 146.28125 310.902344 148.339844 C 312.046875 149.753906 312.121094 149.832031 311.988281 149.199219 C 311.207031 145.402344 307.753906 138.601562 304.183594 133.867188 L 303.078125 132.398438 L 298.765625 137.933594 C 295.542969 142.058594 294.414062 143.375 294.378906 143.089844 C 294.222656 142.15625 295.121094 138.738281 296.648438 134.34375 C 298.15625 130.046875 301.875 121.511719 302.257812 121.511719 C 302.601562 121.511719 305.386719 123.175781 306.320312 123.9375 C 312.941406 129.34375 320.042969 140.246094 326.871094 155.503906 L 328.628906 159.417969 L 326.320312 161.707031 C 321.128906 166.824219 315.746094 174.253906 311.054688 182.730469 L 309.777344 185.042969 L 308.6875 185.289062 C 306.816406 185.710938 303.019531 186.988281 300.691406 187.984375 C 297.296875 189.433594 293.863281 191.457031 290.980469 193.691406 C 290.351562 194.1875 289.625 194.667969 289.359375 194.742188 C 288.671875 194.953125 282.46875 199.191406 279.132812 201.730469 C 269.894531 208.738281 264.34375 214.773438 262.128906 220.234375 C 260.964844 223.136719 255.070312 241.542969 255.261719 241.714844 C 255.28125 241.734375 257.644531 240.933594 260.46875 239.902344 C 263.3125 238.890625 265.640625 238.050781 265.640625 238.070312 C 265.660156 238.089844 265.164062 239.15625 264.535156 240.476562 C 261.042969 247.710938 258.65625 254.683594 257.226562 261.765625 C 256.273438 266.617188 256.253906 266.636719 256.710938 266.636719 C 257.015625 266.636719 257.265625 266.082031 258.277344 263.160156 C 260.375 256.992188 263.101562 250.519531 265.753906 245.441406 C 267.148438 242.785156 270.085938 237.609375 270.203125 237.609375 C 270.238281 237.609375 270.066406 238.242188 269.800781 238.984375 C 269.019531 241.296875 266.9375 248.171875 265.910156 251.914062 C 262.761719 263.257812 261.195312 271.5625 261.003906 277.902344 C 260.890625 281.683594 261.136719 283.726562 261.882812 285.464844 C 262.074219 285.882812 262.28125 286.648438 262.359375 287.183594 C 262.589844 288.765625 263.238281 291.230469 263.828125 292.625 C 264.859375 295.144531 266.136719 296.996094 269.398438 300.71875 C 271.613281 303.222656 274.722656 307.367188 275.984375 309.445312 C 278.003906 312.789062 279.1875 315.882812 280.125 320.292969 C 280.410156 321.609375 280.828125 323.425781 281.097656 324.339844 C 282.242188 328.523438 285.601562 333.507812 290.808594 338.738281 C 293.554688 341.488281 294.242188 342.042969 294.566406 341.71875 C 294.71875 341.566406 294.320312 341.011719 293.136719 339.695312 C 288.347656 334.386719 285.121094 329.515625 283.75 325.449219 C 283.480469 324.664062 283.042969 322.679688 282.792969 321.058594 C 282.527344 319.433594 282.183594 317.503906 282.03125 316.796875 C 280.828125 311.472656 277.757812 305.648438 272.96875 299.671875 C 271.003906 297.246094 270.964844 297.207031 275.523438 301.484375 C 279.933594 305.609375 283.195312 309.484375 285.160156 312.941406 C 285.695312 313.878906 286.628906 315.902344 287.222656 317.429688 C 288.902344 321.78125 290.425781 324.628906 293.441406 329.171875 C 300.789062 340.171875 313.761719 353.652344 322.960938 359.820312 C 325.652344 361.613281 337.425781 368.546875 340.171875 369.960938 L 340.914062 370.339844 L 339.65625 367.992188 C 333.855469 357.183594 327.292969 343.074219 326.128906 338.890625 C 324.144531 331.84375 322.214844 320.160156 320.59375 305.570312 L 319.964844 299.917969 L 319.050781 297.644531 C 315.136719 287.832031 306.492188 275.34375 294.929688 262.835938 L 293.15625 260.90625 L 294.625 260.90625 C 296.859375 260.90625 299.816406 261.441406 300.828125 262.015625 C 307.007812 265.527344 312.769531 270.109375 317.273438 275.113281 C 319.984375 278.113281 321.167969 279.734375 323.855469 284.144531 C 323.972656 284.316406 324.105469 284.335938 324.296875 284.203125 C 324.542969 284.050781 324.542969 283.898438 324.238281 283.019531 C 323.628906 281.28125 321.890625 277.882812 320.539062 275.800781 C 319.390625 274.0625 317.867188 272.078125 315.480469 269.214844 C 314.890625 268.507812 314.925781 268.527344 316.453125 269.652344 C 319.488281 271.867188 322.101562 274.160156 325.289062 277.347656 L 328.476562 280.554688 L 334.925781 273.738281 C 338.472656 269.996094 341.527344 266.769531 341.71875 266.539062 C 342.058594 266.160156 342.078125 266.160156 341.925781 266.539062 C 341.851562 266.75 341.164062 268.753906 340.402344 271.007812 C 339.179688 274.597656 338.894531 275.265625 337.976562 276.546875 C 335.933594 279.390625 334.925781 281.089844 333.339844 284.296875 C 330.269531 290.5625 328.703125 296.632812 328.378906 303.621094 C 328.246094 306.296875 328.246094 306.351562 328.648438 306.351562 C 328.972656 306.351562 329.085938 306.164062 329.257812 305.246094 C 330.152344 300.875 331.242188 297.074219 332.691406 293.425781 C 333.511719 291.382812 335.171875 287.90625 334.90625 288.84375 C 332.445312 296.976562 332.671875 307.023438 335.476562 314.488281 C 336.089844 316.148438 337.671875 319.527344 337.824219 319.527344 C 337.882812 319.527344 338.054688 319.453125 338.1875 319.375 C 338.378906 319.242188 338.359375 319.050781 338.128906 318.363281 C 337.613281 316.933594 336.71875 313.398438 336.414062 311.605469 C 335.992188 309.179688 335.6875 304.597656 335.859375 303.011719 L 335.992188 301.675781 L 336.316406 302.820312 C 337.996094 308.816406 342.9375 314.945312 349.484375 319.203125 C 354.84375 322.660156 360.226562 324.246094 364.9375 323.730469 C 368.21875 323.367188 371.523438 322.222656 373.867188 320.617188 L 374.898438 319.910156 L 375.757812 320.503906 C 376.214844 320.828125 377.398438 321.457031 378.351562 321.914062 C 384.707031 324.894531 391.078125 324.398438 398.445312 320.3125 C 403.15625 317.714844 408.042969 313.171875 410.675781 308.929688 C 411.628906 307.421875 412.773438 304.980469 413.234375 303.566406 C 413.460938 302.839844 413.730469 302.171875 413.824219 302.078125 C 414.035156 301.808594 414.015625 305.820312 413.785156 308.359375 C 413.480469 311.566406 412.601562 315.730469 411.609375 318.515625 C 411.363281 319.222656 411.363281 319.320312 411.628906 319.433594 C 411.992188 319.566406 412.070312 319.453125 412.8125 318 C 414.261719 315.175781 415.597656 310.859375 416.210938 307.023438 C 416.457031 305.476562 416.535156 303.832031 416.535156 300.816406 C 416.535156 296.425781 416.226562 293.902344 415.234375 290.199219 C 414.96875 289.261719 414.796875 288.480469 414.816406 288.441406 C 414.929688 288.347656 416.667969 292.28125 417.582031 294.742188 C 418.671875 297.664062 419.625 301.007812 420.3125 304.234375 C 420.65625 305.972656 420.808594 306.351562 421.074219 306.351562 C 421.378906 306.351562 421.417969 306.144531 421.417969 304.386719 C 421.417969 295.164062 417.773438 284.625 411.746094 276.429688 C 410.867188 275.246094 410.597656 274.617188 409.625 271.65625 C 408.996094 269.785156 408.308594 267.78125 408.082031 267.207031 L 407.660156 266.160156 L 408.40625 266.921875 C 408.824219 267.34375 411.589844 270.265625 414.550781 273.414062 C 417.527344 276.566406 420.253906 279.46875 420.65625 279.867188 L 421.359375 280.613281 L 422.371094 279.488281 C 425.042969 276.566406 429.242188 272.726562 432.390625 270.339844 C 435.003906 268.355469 435.175781 268.316406 433.59375 270.109375 C 430.195312 273.929688 427.371094 278.417969 425.730469 282.523438 C 425.160156 283.992188 425.140625 284.125 425.5 284.261719 C 425.691406 284.335938 426.152344 283.78125 426.953125 282.464844 C 431.589844 274.921875 440.539062 266.539062 448.53125 262.261719 C 450.171875 261.382812 452.863281 260.851562 455.152344 260.945312 L 456.546875 261.003906 L 454.601562 263.101562 C 443.152344 275.554688 434.527344 288.023438 430.769531 297.609375 C 429.796875 300.050781 429.796875 300.089844 429.316406 304.5 C 427.105469 325.296875 423.859375 341.394531 420.808594 346.644531 C 419.703125 348.535156 425.425781 341.394531 428.859375 336.601562 C 434.585938 328.597656 438.113281 322.203125 439.851562 316.78125 C 442.980469 306.984375 445.917969 300.644531 450.613281 293.675781 C 455.039062 287.046875 459.695312 282.5625 463.777344 280.957031 C 464.695312 280.59375 464.769531 280.59375 464.636719 280.898438 C 463.339844 284.125 461.277344 290.351562 460.171875 294.417969 C 458.703125 299.917969 457.671875 306.066406 457.671875 309.582031 L 457.671875 310.992188 L 462.023438 304.519531 C 464.425781 300.96875 467.632812 296.289062 469.179688 294.132812 C 473.96875 287.410156 475.722656 283.25 476.390625 277.042969 C 476.792969 273.339844 476.429688 270.035156 475.113281 265.011719 C 473.871094 260.21875 473.320312 256.933594 472.460938 249.355469 C 470.953125 235.929688 469.425781 229.304688 466.601562 224.054688 C 465.171875 221.359375 462.957031 218.785156 460.953125 217.464844 C 460.515625 217.179688 460.171875 216.894531 460.210938 216.855469 C 460.363281 216.722656 463.757812 217.808594 466.125 218.746094 C 471.582031 220.921875 476.144531 224.09375 478.28125 227.203125 C 478.625 227.683594 478.929688 228.0625 478.949219 228.027344 C 479.0625 227.929688 478.375 224.96875 477.820312 223.042969 C 474.808594 212.769531 469.292969 203.429688 462.347656 196.785156 C 461.222656 195.714844 460.4375 194.839844 460.59375 194.839844 C 460.800781 194.839844 461.355469 192.851562 462.824219 186.953125 C 463.910156 182.636719 465.113281 178.054688 465.535156 176.792969 C 469.214844 165.46875 469.710938 154.148438 466.925781 144.921875 C 466.066406 142.058594 464.179688 136.710938 461.925781 130.679688 C 459.445312 124.050781 452.789062 107.402344 452.195312 106.351562 C 452.082031 106.121094 451.738281 106.292969 450.515625 107.132812 Z M 381.539062 287.164062 C 385.414062 287.792969 389.363281 289.398438 391.042969 291.039062 C 392.816406 292.757812 393.695312 295.011719 393.523438 297.378906 C 393.425781 298.46875 391.882812 304.234375 391.441406 305.035156 C 390.90625 306.066406 383.867188 308.835938 377.609375 310.476562 C 374.632812 311.261719 374.878906 311.28125 369.917969 309.847656 C 366.292969 308.816406 362.972656 307.554688 360.359375 306.257812 L 358.335938 305.246094 L 357.363281 301.921875 C 356.199219 298.046875 356.046875 297.113281 356.332031 295.582031 C 356.753906 293.273438 358.144531 291.230469 360.167969 289.933594 C 362.4375 288.480469 366.65625 287.238281 370.511719 286.894531 C 373.164062 286.648438 379.308594 286.800781 381.539062 287.164062 Z M 301.304688 312.847656 C 304.203125 318.402344 306.953125 324.035156 308.402344 327.453125 C 310.0625 331.347656 311.226562 333.488281 313.859375 337.421875 C 316.453125 341.335938 321.625 348.34375 325.363281 353.039062 C 328.609375 357.128906 329.046875 357.699219 328.476562 357.222656 C 328.226562 356.992188 326.492188 355.5625 324.640625 354.035156 C 315.234375 346.242188 306.855469 338.242188 303.574219 333.871094 C 300.710938 330.050781 299.070312 324.265625 299.128906 318.191406 C 299.128906 317.199219 298.917969 314.316406 298.652344 311.796875 C 298.382812 309.292969 298.15625 307.175781 298.15625 307.117188 C 298.15625 306.90625 298.917969 308.300781 301.304688 312.847656 Z M 301.304688 312.847656 " fill-opacity="1" fill-rule="nonzero"/><path fill="#ffffff" d="M 372.648438 289.933594 C 371.597656 290.007812 370.050781 290.21875 369.210938 290.390625 C 367.074219 290.867188 364.421875 292.183594 363.222656 293.367188 C 362.707031 293.902344 362.265625 294.417969 362.265625 294.496094 C 362.265625 294.589844 363.011719 294.398438 363.910156 294.113281 C 367.894531 292.757812 373.449219 292.050781 377.207031 292.414062 C 379.957031 292.664062 383.542969 293.351562 385.738281 294.054688 C 386.59375 294.324219 387.359375 294.496094 387.417969 294.417969 C 387.472656 294.363281 387.054688 293.867188 386.460938 293.292969 C 384.535156 291.476562 381.308594 290.257812 377.820312 290.027344 C 376.980469 289.96875 375.910156 289.894531 375.433594 289.855469 C 374.957031 289.816406 373.714844 289.855469 372.648438 289.933594 Z M 372.648438 289.933594 " fill-opacity="1" fill-rule="nonzero"/><path fill="#ffffff" d="M 311.777344 169.539062 C 309.203125 170.226562 307.601562 171.238281 304.832031 173.929688 C 303.726562 175 302.410156 176.183594 301.914062 176.5625 C 300.332031 177.75 297.621094 178.933594 294.148438 179.945312 C 292.316406 180.496094 290.769531 180.957031 290.734375 180.996094 C 290.65625 181.070312 292.621094 186.835938 292.792969 187.046875 C 292.851562 187.125 293.554688 186.78125 294.339844 186.300781 C 297.832031 184.144531 302.238281 182.40625 305.253906 182.007812 L 306.894531 181.777344 L 307.808594 179.695312 C 309.566406 175.667969 311.777344 172.058594 313.628906 170.207031 L 314.582031 169.25 L 313.667969 169.269531 C 313.171875 169.269531 312.3125 169.382812 311.777344 169.539062 Z M 311.777344 169.539062 " fill-opacity="1" fill-rule="nonzero"/><path fill="#ffffff" d="M 479.84375 217.238281 C 480.265625 220.425781 481.160156 223.710938 482.097656 225.582031 C 482.554688 226.480469 488.46875 233.582031 489.402344 234.328125 C 489.632812 234.519531 489.558594 234.117188 489.078125 232.703125 C 486.90625 226.308594 483.890625 220.347656 481.484375 217.675781 C 480.855469 216.988281 480.1875 216.339844 480.015625 216.226562 C 479.710938 216.070312 479.691406 216.148438 479.84375 217.238281 Z M 479.84375 217.238281 " fill-opacity="1" fill-rule="nonzero"/><path fill="#ffffff" d="M 323.820312 218.210938 C 319.792969 219.050781 316.664062 220.0625 316.664062 220.519531 C 316.664062 220.863281 320.863281 224.683594 322.960938 226.269531 C 324.964844 227.777344 327.253906 228.921875 328.835938 229.226562 C 331.355469 229.707031 336.601562 229.152344 342.097656 227.816406 L 344.617188 227.183594 L 342.042969 225.257812 C 336.585938 221.171875 332.328125 218.839844 328.914062 218.058594 C 327.160156 217.65625 326.355469 217.675781 323.820312 218.210938 Z M 323.820312 218.210938 " fill-opacity="1" fill-rule="nonzero"/><path fill="#ffffff" d="M 422.199219 217.960938 C 418.976562 218.59375 414.320312 221.09375 408.921875 225.105469 C 407.507812 226.152344 406.34375 227.070312 406.34375 227.148438 C 406.34375 227.320312 410.636719 228.332031 413.5 228.828125 C 416.363281 229.324219 420.351562 229.515625 421.894531 229.226562 C 424.453125 228.769531 428.136719 226.363281 432.066406 222.621094 C 433.230469 221.496094 434.203125 220.519531 434.203125 220.425781 C 434.203125 220.160156 429.546875 218.726562 426.988281 218.25 C 424.355469 217.734375 423.59375 217.675781 422.199219 217.960938 Z M 422.199219 217.960938 " fill-opacity="1" fill-rule="nonzero"/><path fill="#ffffff" d="M 482.113281 277.386719 C 481.332031 280.804688 479.445312 286.054688 477.535156 290.199219 C 477.097656 291.132812 476.792969 291.9375 476.828125 291.976562 C 476.867188 292.011719 477.574219 291.269531 478.394531 290.3125 C 481.484375 286.722656 483.8125 283 483.8125 281.605469 C 483.8125 280.269531 482.9375 275.417969 482.6875 275.417969 C 482.628906 275.417969 482.363281 276.296875 482.113281 277.386719 Z M 482.113281 277.386719 " fill-opacity="1" fill-rule="nonzero"/><path fill="#ffffff" d="M 449.945312 326.25 C 444.164062 331.464844 437.886719 337.421875 436.28125 339.214844 C 435.5 340.09375 434.335938 341.582031 433.726562 342.519531 C 432.449219 344.429688 427.449219 350.710938 423.535156 355.332031 C 422.105469 357.011719 420.808594 358.558594 420.65625 358.75 C 420.199219 359.34375 424.507812 356.132812 427.523438 353.632812 C 439.753906 343.472656 448.285156 333.871094 452.84375 325.144531 C 453.511719 323.84375 454.007812 322.773438 453.914062 322.773438 C 453.835938 322.792969 452.042969 324.339844 449.945312 326.25 Z M 449.945312 326.25 " fill-opacity="1" fill-rule="nonzero"/><path fill="#ffffff" d="M 400.046875 326.824219 C 397.339844 328.597656 393.75 330.488281 391.652344 331.214844 C 390.582031 331.597656 390.050781 331.65625 387.929688 331.636719 C 385.71875 331.617188 385.164062 331.539062 382.816406 330.929688 C 381.386719 330.546875 379.019531 329.78125 377.570312 329.25 L 374.957031 328.253906 L 374.097656 328.582031 C 373.621094 328.769531 371.863281 329.363281 370.1875 329.9375 C 362.324219 332.570312 359.386719 332.378906 353.011719 328.828125 C 352.078125 328.292969 350.417969 327.28125 349.332031 326.554688 C 348.261719 325.847656 347.289062 325.257812 347.191406 325.257812 C 347.078125 325.257812 347.003906 326.15625 347.003906 327.511719 C 347.003906 333.238281 348.128906 337.136719 350.4375 339.40625 C 352.230469 341.164062 356.714844 343.128906 363.851562 345.289062 C 368.488281 346.703125 370.28125 347.027344 373.8125 347.160156 C 378.65625 347.332031 381.386719 346.816406 388.75 344.371094 C 393.140625 342.902344 396.269531 341.601562 397.910156 340.554688 C 401.308594 338.355469 402.832031 334.25 402.679688 327.738281 L 402.625 325.144531 Z M 400.046875 326.824219 " fill-opacity="1" fill-rule="nonzero"/><path fill="#ffffff" d="M 374.289062 372.078125 C 368.984375 376.605469 362.039062 376.832031 356.714844 372.671875 L 355.339844 371.582031 L 355.457031 375.402344 C 355.589844 380.023438 355.988281 383.824219 356.734375 387.507812 C 358.144531 394.574219 359.921875 397.722656 366.464844 404.847656 C 368.621094 407.175781 373.660156 411.949219 374.574219 412.503906 C 374.996094 412.769531 375.109375 412.695312 377.476562 410.574219 C 382.265625 406.257812 386.824219 401.21875 389.265625 397.53125 C 391.632812 393.980469 393.007812 389.492188 393.847656 382.503906 C 394.132812 380.195312 394.570312 371.851562 394.417969 371.695312 C 394.378906 371.660156 393.941406 371.964844 393.425781 372.382812 C 392.035156 373.550781 390.394531 374.484375 388.695312 375.039062 C 387.398438 375.476562 386.824219 375.554688 384.78125 375.554688 C 382.796875 375.574219 382.167969 375.496094 380.964844 375.132812 C 379.019531 374.523438 377.226562 373.550781 375.988281 372.441406 L 374.9375 371.507812 Z M 374.289062 372.078125 " fill-opacity="1" fill-rule="nonzero"/><path fill="#ffffff" d="M 336.316406 387.738281 C 337.824219 391.898438 341.085938 397.628906 344.332031 401.828125 C 346.03125 404.023438 351.066406 409.105469 353.300781 410.878906 C 357.039062 413.859375 361.636719 416.628906 366.101562 418.613281 C 368.546875 419.683594 372 421 372.113281 420.886719 C 372.132812 420.847656 371.160156 420.007812 369.9375 419.015625 C 368.714844 418.023438 365.683594 415.175781 363.222656 412.714844 C 354.253906 403.796875 351.105469 398.792969 349.273438 390.621094 L 348.835938 388.671875 L 346.792969 388.195312 C 344.558594 387.660156 338.339844 386.476562 336.738281 386.265625 L 335.746094 386.132812 Z M 336.316406 387.738281 " fill-opacity="1" fill-rule="nonzero"/><path fill="#ffffff" d="M 410.160156 386.726562 C 406.726562 387.335938 401.613281 388.441406 401.191406 388.652344 C 401.019531 388.75 400.792969 389.339844 400.640625 390.027344 C 399.953125 393.445312 398.386719 397.78125 396.976562 400.1875 C 393.75 405.667969 386.765625 413.285156 379.382812 419.378906 C 378.351562 420.238281 377.570312 420.925781 377.628906 420.925781 C 377.933594 420.925781 381.101562 419.722656 383.351562 418.746094 C 395.21875 413.609375 405.085938 404.519531 410.90625 393.425781 C 411.898438 391.5 413.5 387.851562 413.882812 386.589844 C 414.035156 386.054688 413.976562 386.054688 410.160156 386.726562 Z M 410.160156 386.726562 " fill-opacity="1" fill-rule="nonzero"/><g fill="#ffffff" fill-opacity="1"><g transform="translate(290.303162, 529.721744)"><g><path d="M 55.46875 -11.828125 L 59.078125 -11.828125 L 59.078125 0 L 39.375 0 L 28.5625 -22.359375 L 25.25 -19.625 L 25.25 -11.828125 L 28.703125 -11.828125 L 28.703125 0 L 1.4375 0 L 1.4375 -11.828125 L 5.046875 -11.828125 L 5.046875 -44.28125 L 1.4375 -44.28125 L 1.4375 -56.109375 L 28.703125 -56.109375 L 28.703125 -44.28125 L 25.25 -44.28125 L 25.25 -34.765625 L 36.421875 -44.28125 L 31.875 -44.28125 L 31.875 -56.109375 L 58.703125 -56.109375 L 58.703125 -44.28125 L 55.109375 -44.28125 L 43.0625 -34.328125 Z M 55.46875 -11.828125 "/></g></g></g><g fill="#ffffff" fill-opacity="1"><g transform="translate(350.472897, 529.721744)"><g><path d="M 29.421875 1.015625 C 20.335938 1.015625 13.332031 -1.289062 8.40625 -5.90625 C 3.476562 -10.53125 1.015625 -17.914062 1.015625 -28.0625 C 1.015625 -47.4375 10.4375 -57.125 29.28125 -57.125 C 33.851562 -57.125 38.097656 -56.570312 42.015625 -55.46875 C 45.929688 -54.363281 48.851562 -53.132812 50.78125 -51.78125 L 50.78125 -33.75 L 33.46875 -33.75 L 33.46875 -38.953125 C 33.46875 -40.773438 33.054688 -42.117188 32.234375 -42.984375 C 31.421875 -43.847656 30.195312 -44.28125 28.5625 -44.28125 C 26.925781 -44.28125 25.695312 -43.847656 24.875 -42.984375 C 24.0625 -42.117188 23.65625 -40.773438 23.65625 -38.953125 L 23.65625 -17.171875 C 23.65625 -15.335938 24.0625 -13.988281 24.875 -13.125 C 25.695312 -12.257812 26.925781 -11.828125 28.5625 -11.828125 C 30.195312 -11.828125 31.421875 -12.257812 32.234375 -13.125 C 33.054688 -13.988281 33.46875 -15.335938 33.46875 -17.171875 L 33.46875 -23.015625 L 50.78125 -23.015625 L 50.78125 -4.328125 C 48.800781 -2.984375 45.875 -1.753906 42 -0.640625 C 38.132812 0.460938 33.941406 1.015625 29.421875 1.015625 Z M 29.421875 1.015625 "/></g></g></g><g fill="#ffffff" fill-opacity="1"><g transform="translate(402.49991, 529.721744)"><g><path d="M 32.96875 -56.109375 L 55.109375 -56.109375 L 55.109375 -44.28125 L 52.21875 -44.28125 L 38.296875 -19.328125 L 38.296875 -11.828125 L 41.90625 -11.828125 L 41.90625 0 L 14.5 0 L 14.5 -11.828125 L 18.109375 -11.828125 L 18.109375 -19.328125 L 3.75 -44.28125 L 0.859375 -44.28125 L 0.859375 -56.109375 L 28.78125 -56.109375 L 28.78125 -44.28125 L 26.25 -44.28125 L 30.515625 -33.109375 L 31.234375 -33.109375 L 35.484375 -44.28125 L 32.96875 -44.28125 Z M 32.96875 -56.109375 "/></g></g></g></svg>